<svg xmlns="http://www.w3.org/2000/svg" width="31.784" height="13.036" viewBox="0 0 31.784 13.036">
  <g id="Group_566" data-name="Group 566" transform="translate(-27.682 -45.227)">
    <path id="Path_3963" data-name="Path 3963" d="M58.634,50.271a1.181,1.181,0,0,0-1.472.781l-1.74,5.689a1.179,1.179,0,0,0,.782,1.47,1.145,1.145,0,0,0,.345.052,1.188,1.188,0,0,0,1.127-.833l1.739-5.69A1.178,1.178,0,0,0,58.634,50.271Z" fill="#4872e0"/>
    <path id="Path_3964" data-name="Path 3964" d="M29.96,50.906a1.177,1.177,0,1,0-2.2.845L29.9,57.3a1.178,1.178,0,0,0,2.2-.845Z" fill="#4872e0"/>
    <path id="Path_3965" data-name="Path 3965" d="M44.164,45.23A1.2,1.2,0,0,0,42.9,46.358L42.353,55.8a1.2,1.2,0,0,0,1.127,1.266l.071,0a1.2,1.2,0,0,0,1.2-1.131l.544-9.444A1.2,1.2,0,0,0,44.164,45.23Z" fill="#4872e0"/>
  </g>
</svg>
