<svg xmlns="http://www.w3.org/2000/svg" width="55.045" height="68.805" viewBox="0 0 55.045 68.805">
  <g id="surface1" transform="translate(-7.999 -4)">
    <path id="Path_484" data-name="Path 484" d="M34.4,7.542c.922-.2,1.761-.37,2.6-.559a.26.26,0,0,0,.169-.181c.007-.929.007-1.854.007-2.8-.881.2-1.706.384-2.534.592a.348.348,0,0,0-.229.248c-.019.874-.014,1.755-.014,2.7Z" transform="translate(19.01 0)" fill="#2673e5"/>
    <path id="Path_485" data-name="Path 485" d="M37.175,45.477c0-.946.007-1.861-.007-2.781-.007-.074-.162-.194-.263-.224q-.8-.186-1.6-.341c-.287-.06-.576-.12-.907-.182,0,.929-.005,1.794.007,2.654a.344.344,0,0,0,.169.268c.846.21,1.7.4,2.6.605Z" transform="translate(19.01 27.328)" fill="#2673e5"/>
    <path id="Path_486" data-name="Path 486" d="M35.155,7.345V4.466l-1.815.37c-.953.2-.953.206-.953,1.2V7.872c.967-.181,1.861-.349,2.769-.523Z" transform="translate(17.562 0.336)" fill="#2673e5"/>
    <path id="Path_487" data-name="Path 487" d="M32.388,41.555c0,.941,0,1.794.007,2.647a.316.316,0,0,0,.16.222c.86.187,1.72.356,2.6.537V42.08l-2.769-.523Z" transform="translate(17.561 27.044)" fill="#2673e5"/>
    <path id="Path_488" data-name="Path 488" d="M30.39,8.16c.881-.148,1.694-.275,2.508-.423.093-.014.248-.141.248-.222.021-.867.014-1.727.014-2.64-.907.162-1.773.317-2.633.476a.267.267,0,0,0-.127.208c-.014.848-.007,1.7-.007,2.6Z" transform="translate(16.124 0.63)" fill="#2673e5"/>
    <path id="Path_489" data-name="Path 489" d="M31.142,41.318c-.927-.134-1.834-.261-2.747-.4v2.735l2.747.437V41.318Z" transform="translate(14.687 26.588)" fill="#2673e5"/>
    <path id="Path_490" data-name="Path 490" d="M24.314,8.781c.893-.089,1.76-.17,2.627-.263a.254.254,0,0,0,.174-.175c.007-.826.007-1.66.007-2.527-.974.108-1.894.21-2.809.3V8.781Z" transform="translate(11.747 1.308)" fill="#2673e5"/>
    <path id="Path_491" data-name="Path 491" d="M25.069,43.166V41.432c0-.894,0-.894-.872-.98q-.957-.089-1.916-.155v2.633C23.2,43.011,24.116,43.085,25.069,43.166Z" transform="translate(10.284 26.138)" fill="#2673e5"/>
    <path id="Path_492" data-name="Path 492" d="M25.049,6.032c-.953.088-1.859.169-2.768.241V8.9c.934-.067,1.841-.141,2.769-.206V6.03Z" transform="translate(10.284 1.462)" fill="#2673e5"/>
    <path id="Path_493" data-name="Path 493" d="M26.348,43.362l2.761.363V41l-2.761-.335Z" transform="translate(13.213 26.405)" fill="#2673e5"/>
    <path id="Path_494" data-name="Path 494" d="M29.1,5.55c-.941.129-1.847.249-2.749.372V8.615C27.289,8.5,28.2,8.386,29.1,8.28Z" transform="translate(13.218 1.116)" fill="#2673e5"/>
    <path id="Path_495" data-name="Path 495" d="M20.246,6.365V8.991c.946-.06,1.854-.107,2.769-.167V6.2Z" transform="translate(8.819 1.586)" fill="#2673e5"/>
    <path id="Path_496" data-name="Path 496" d="M23.031,40.332c-.953-.055-1.861-.1-2.807-.148,0,.833-.007,1.612.012,2.391,0,.088.169.224.27.236.409.046.819.06,1.23.081l1.3.06Z" transform="translate(8.802 26.057)" fill="#2673e5"/>
    <path id="Path_497" data-name="Path 497" d="M16.164,42.668h2.769V40.1H16.164Z" transform="translate(5.879 25.998)" fill="#2673e5"/>
    <path id="Path_498" data-name="Path 498" d="M18.2,42.723h2.769V40.148H18.2Z" transform="translate(7.348 26.031)" fill="#2673e5"/>
    <path id="Path_499" data-name="Path 499" d="M18.926,8.972V6.406H16.172V8.972h2.754Z" transform="translate(5.885 1.733)" fill="#2673e5"/>
    <path id="Path_500" data-name="Path 500" d="M14.117,8.975H16.88V6.4H14.117Z" transform="translate(4.405 1.73)" fill="#2673e5"/>
    <path id="Path_501" data-name="Path 501" d="M37.153,8.008c-.948.174-1.854.349-2.735.511v2.56c.934-.162,1.827-.31,2.735-.464Z" transform="translate(19.024 2.886)" fill="#2673e5"/>
    <path id="Path_502" data-name="Path 502" d="M34.41,38.2c0,.511-.005.941,0,1.371.007.39-.107.881.081,1.135.175.224.679.194,1.042.268.537.108,1.082.2,1.626.3V38.667Z" transform="translate(18.998 24.63)" fill="#2673e5"/>
    <path id="Path_503" data-name="Path 503" d="M39.127,39.055c-.907-.169-1.794-.337-2.7-.5v2.62c.9.189,1.794.37,2.7.557Z" transform="translate(20.47 24.881)" fill="#2673e5"/>
    <path id="Path_504" data-name="Path 504" d="M36.43,10.784l2.694-.513V7.6c-.913.187-1.806.375-2.694.564v2.62Z" transform="translate(20.473 2.591)" fill="#2673e5"/>
    <path id="Path_505" data-name="Path 505" d="M39.126,5.648c-.853.2-1.693.384-2.532.592-.069.014-.169.115-.169.169-.014.819-.007,1.646-.007,2.494.934-.2,1.815-.392,2.714-.58-.007-.881-.007-1.748-.007-2.675Z" transform="translate(20.464 1.187)" fill="#2673e5"/>
    <path id="Path_506" data-name="Path 506" d="M32.4,11.342c.941-.141,1.841-.284,2.742-.418V8.38L32.4,8.831Z" transform="translate(17.57 3.154)" fill="#2673e5"/>
    <path id="Path_507" data-name="Path 507" d="M35.13,40.855V38.309c-.92-.134-1.813-.27-2.728-.411V40.4c.908.155,1.8.3,2.728.451Z" transform="translate(17.573 24.41)" fill="#2673e5"/>
    <path id="Path_508" data-name="Path 508" d="M35.14,42.74V40.194c-.913-.155-1.813-.31-2.742-.464v2.508C33.32,42.4,34.213,42.573,35.14,42.74Z" transform="translate(17.57 25.73)" fill="#2673e5"/>
    <path id="Path_509" data-name="Path 509" d="M35.155,6.52c-.86.155-1.693.31-2.527.476-.086.014-.227.127-.227.194-.021.765-.014,1.531-.014,2.345.96-.16,1.861-.315,2.769-.47V6.52Z" transform="translate(17.561 1.815)" fill="#2673e5"/>
    <path id="Path_510" data-name="Path 510" d="M27.094,41.367V38.994c-.941-.086-1.861-.167-2.781-.248v2.345c.927.095,1.841.189,2.781.275Z" transform="translate(11.748 25.021)" fill="#2673e5"/>
    <path id="Path_511" data-name="Path 511" d="M24.312,39.377c.946.081,1.868.162,2.768.236a.5.5,0,0,0,.04-.12c.007-.464.007-.92.007-1.385,0-.839,0-.839-.805-.913-.074-.007-.155-.028-.236-.034l-1.78-.12c.007.807.007,1.545.007,2.339Z" transform="translate(11.742 23.792)" fill="#2673e5"/>
    <path id="Path_512" data-name="Path 512" d="M8.012,11.349v2.338l2.761.155V11.5c-.927-.046-1.834-.1-2.761-.155Z" transform="translate(0.009 5.291)" fill="#2673e5"/>
    <path id="Path_513" data-name="Path 513" d="M8.012,39.422c.941-.067,1.847-.134,2.761-.194V36.9l-2.761.175v2.345Z" transform="translate(0.009 23.693)" fill="#2673e5"/>
    <path id="Path_514" data-name="Path 514" d="M8,14.809c0,.678-.007,1.39.014,2.1,0,.06.134.175.2.175.846.014,1.693.007,2.56.007V14.809H8Z" transform="translate(0 7.784)" fill="#2673e5"/>
    <path id="Path_515" data-name="Path 515" d="M8.012,18.825h2.761V16.508H8.012Z" transform="translate(0.009 9.007)" fill="#2673e5"/>
    <path id="Path_516" data-name="Path 516" d="M10.777,35.2c-.946.053-1.854.108-2.761.155V37.7c.934-.06,1.841-.114,2.761-.174V35.2Z" transform="translate(0.012 22.47)" fill="#2673e5"/>
    <path id="Path_517" data-name="Path 517" d="M10.777,19.914H8.016v2.319h2.759V19.914Z" transform="translate(0.012 11.46)" fill="#2673e5"/>
    <path id="Path_518" data-name="Path 518" d="M10.777,26.75H8.016v2.271h2.759V26.75Z" transform="translate(0.012 16.383)" fill="#2673e5"/>
    <path id="Path_519" data-name="Path 519" d="M8.012,30.733h2.761V28.45H8.012v2.284Z" transform="translate(0.009 17.607)" fill="#2673e5"/>
    <path id="Path_520" data-name="Path 520" d="M18.94,9.939H16.171v2.25H18.94V9.937Z" transform="translate(5.885 4.275)" fill="#2673e5"/>
    <path id="Path_521" data-name="Path 521" d="M16.886,9.934H14.117V12.2h2.769Z" transform="translate(4.405 4.273)" fill="#2673e5"/>
    <path id="Path_522" data-name="Path 522" d="M14.122,20.577h2.763V18.312H14.12v2.265Z" transform="translate(4.408 10.306)" fill="#2673e5"/>
    <path id="Path_523" data-name="Path 523" d="M14.117,30.63h2.775V28.37H14.117v2.259Z" transform="translate(4.405 17.549)" fill="#2673e5"/>
    <path id="Path_524" data-name="Path 524" d="M14.85,21.656H12.074v2.271H14.85Z" transform="translate(2.934 12.714)" fill="#2673e5"/>
    <path id="Path_525" data-name="Path 525" d="M14.125,21.664v2.259h2.761V21.664Z" transform="translate(4.411 12.72)" fill="#2673e5"/>
    <path id="Path_526" data-name="Path 526" d="M10.043,22.23h2.749V19.953H10.043V22.23Z" transform="translate(1.472 11.488)" fill="#2673e5"/>
    <path id="Path_527" data-name="Path 527" d="M14.846,25.027H12.07v2.265h2.776Z" transform="translate(2.931 15.142)" fill="#2673e5"/>
    <path id="Path_528" data-name="Path 528" d="M16.889,25.023H14.13v2.259h2.761V25.023Z" transform="translate(4.415 15.139)" fill="#2673e5"/>
    <path id="Path_529" data-name="Path 529" d="M12.8,26.727H10.043v2.264H12.8Z" transform="translate(1.472 16.366)" fill="#2673e5"/>
    <path id="Path_530" data-name="Path 530" d="M12.787,25.628V23.344h-2.74v2.284h2.742Z" transform="translate(1.475 13.93)" fill="#2673e5"/>
    <path id="Path_531" data-name="Path 531" d="M10.043,30.672h2.749v-2.25H10.043v2.25Z" transform="translate(1.472 17.587)" fill="#2673e5"/>
    <path id="Path_532" data-name="Path 532" d="M10.043,39.253c.927-.046,1.834-.086,2.742-.134V36.81c-.929.04-1.835.079-2.742.127v2.317Z" transform="translate(1.472 23.627)" fill="#2673e5"/>
    <path id="Path_533" data-name="Path 533" d="M14.847,33.43H12.078v2.243h2.769Z" transform="translate(2.937 21.193)" fill="#2673e5"/>
    <path id="Path_534" data-name="Path 534" d="M10.043,13.8h2.735V11.5H10.043Z" transform="translate(1.472 5.404)" fill="#2673e5"/>
    <path id="Path_535" data-name="Path 535" d="M12.074,32.322h2.769V30.07H12.074Z" transform="translate(2.934 18.773)" fill="#2673e5"/>
    <path id="Path_536" data-name="Path 536" d="M12.787,31.79h-2.74v2.271h2.742V31.79Z" transform="translate(1.475 20.012)" fill="#2673e5"/>
    <path id="Path_537" data-name="Path 537" d="M16.164,39.014h2.763V36.75H16.164v2.264Z" transform="translate(5.879 23.584)" fill="#2673e5"/>
    <path id="Path_538" data-name="Path 538" d="M14.121,36.75v2.259H16.89V36.75Z" transform="translate(4.408 23.584)" fill="#2673e5"/>
    <path id="Path_539" data-name="Path 539" d="M12.79,35.757V33.492H10.043v2.265h2.749Z" transform="translate(1.472 21.238)" fill="#2673e5"/>
    <path id="Path_540" data-name="Path 540" d="M12.078,14.938v2.271h2.769V14.938Z" transform="translate(2.937 7.877)" fill="#2673e5"/>
    <path id="Path_541" data-name="Path 541" d="M10.041,15.474h2.747V13.2H10.039v2.279Z" transform="translate(1.469 6.621)" fill="#2673e5"/>
    <path id="Path_542" data-name="Path 542" d="M12.773,20.556v-2.3H10.05v2.3h2.721Z" transform="translate(1.477 10.267)" fill="#2673e5"/>
    <path id="Path_543" data-name="Path 543" d="M14.858,26.71H12.071v2.246h2.787Z" transform="translate(2.932 16.354)" fill="#2673e5"/>
    <path id="Path_544" data-name="Path 544" d="M12.078,11.578v2.271h2.769V11.578Z" transform="translate(2.937 5.457)" fill="#2673e5"/>
    <path id="Path_545" data-name="Path 545" d="M10.05,30.1v2.284h2.73V30.1Z" transform="translate(1.477 18.794)" fill="#2673e5"/>
    <path id="Path_546" data-name="Path 546" d="M12.074,39.041h2.769V36.789H12.074Z" transform="translate(2.934 23.612)" fill="#2673e5"/>
    <path id="Path_547" data-name="Path 547" d="M14.853,38.469H12.078v2.264h2.775V38.471Z" transform="translate(2.937 24.822)" fill="#2673e5"/>
    <path id="Path_548" data-name="Path 548" d="M12.074,37.361h2.763V35.109H12.074Z" transform="translate(2.934 22.402)" fill="#2673e5"/>
    <path id="Path_549" data-name="Path 549" d="M16.889,16.637H14.121V18.9H16.89V16.637Z" transform="translate(4.408 9.1)" fill="#2673e5"/>
    <path id="Path_550" data-name="Path 550" d="M14.831,18.892V16.613H12.082v2.279Z" transform="translate(2.94 9.083)" fill="#2673e5"/>
    <path id="Path_551" data-name="Path 551" d="M14.121,23.344v2.25H16.89v-2.25Z" transform="translate(4.408 13.93)" fill="#2673e5"/>
    <path id="Path_552" data-name="Path 552" d="M16.168,38.426V40.69h2.756V38.426H16.168Z" transform="translate(5.882 24.791)" fill="#2673e5"/>
    <path id="Path_553" data-name="Path 553" d="M16.16,10.494h2.769V8.27H16.16v2.224Z" transform="translate(5.877 3.075)" fill="#2673e5"/>
    <path id="Path_554" data-name="Path 554" d="M14.837,22.241V19.977H12.074v2.264Z" transform="translate(2.934 11.505)" fill="#2673e5"/>
    <path id="Path_555" data-name="Path 555" d="M14.122,30.05V32.3h2.763V30.05H14.12Z" transform="translate(4.408 18.759)" fill="#2673e5"/>
    <path id="Path_556" data-name="Path 556" d="M34.4,7.542c0-.948-.005-1.822.014-2.7a.35.35,0,0,1,.229-.249c.821-.208,1.653-.39,2.534-.592,0,.946.007,1.875-.007,2.8A.264.264,0,0,1,37,6.983c-.839.189-1.679.363-2.6.559Z" transform="translate(19.01 0)" fill="#2673e5"/>
    <path id="Path_557" data-name="Path 557" d="M37.175,45.477c-.894-.208-1.755-.4-2.6-.605-.074-.019-.162-.174-.169-.261-.012-.867-.007-1.734-.007-2.661.33.069.619.12.915.182.53.107,1.066.215,1.591.342.1.028.263.148.263.229.014.913.007,1.827.007,2.775Z" transform="translate(19.01 27.328)" fill="#2673e5"/>
    <path id="Path_558" data-name="Path 558" d="M35.155,7.346c-.907.175-1.8.344-2.769.525V6.039c0-.994,0-.994.955-1.2.592-.129,1.2-.249,1.815-.378V7.35Z" transform="translate(17.561 0.335)" fill="#2673e5"/>
    <path id="Path_559" data-name="Path 559" d="M32.387,41.555l2.769.523v2.883c-.882-.181-1.742-.349-2.6-.537a.307.307,0,0,1-.16-.224C32.387,43.349,32.387,42.5,32.387,41.555Z" transform="translate(17.562 27.044)" fill="#2673e5"/>
    <path id="Path_560" data-name="Path 560" d="M30.391,8.158c0-.9-.005-1.755,0-2.6.009-.074.081-.194.136-.206.86-.162,1.72-.31,2.633-.471,0,.907.007,1.773-.014,2.633,0,.081-.155.208-.255.224-.807.146-1.62.275-2.5.421Z" transform="translate(16.123 0.633)" fill="#2673e5"/>
    <path id="Path_561" data-name="Path 561" d="M31.142,41.318v2.776L28.4,43.657V40.922c.912.134,1.82.261,2.747.4Z" transform="translate(14.687 26.588)" fill="#2673e5"/>
    <path id="Path_562" data-name="Path 562" d="M24.313,8.782V6.118c.912-.093,1.834-.194,2.807-.3,0,.867,0,1.7-.007,2.529a.26.26,0,0,1-.174.172c-.867.095-1.734.175-2.627.263Z" transform="translate(11.748 1.307)" fill="#2673e5"/>
    <path id="Path_563" data-name="Path 563" d="M25.069,43.166c-.953-.081-1.861-.155-2.787-.236V40.3c.65.046,1.281.095,1.914.155.872.086.872.086.872.98Z" transform="translate(10.285 26.138)" fill="#2673e5"/>
    <path id="Path_564" data-name="Path 564" d="M25.049,6.031V8.692c-.925.069-1.834.141-2.768.208V6.274c.908-.074,1.815-.155,2.769-.241Z" transform="translate(10.284 1.463)" fill="#2673e5"/>
    <path id="Path_565" data-name="Path 565" d="M26.348,43.362V40.668L29.109,41v2.721l-2.761-.361Z" transform="translate(13.213 26.405)" fill="#2673e5"/>
    <path id="Path_566" data-name="Path 566" d="M29.1,5.55V8.28c-.907.107-1.815.222-2.749.335V5.922l2.749-.37Z" transform="translate(13.218 1.116)" fill="#2673e5"/>
    <path id="Path_567" data-name="Path 567" d="M20.246,6.362c.934-.053,1.835-.108,2.769-.155v2.62c-.915.055-1.823.108-2.769.162Z" transform="translate(8.819 1.589)" fill="#2673e5"/>
    <path id="Path_568" data-name="Path 568" d="M23.031,40.332v2.62l-1.3-.06c-.411-.028-.82-.034-1.23-.081-.1-.014-.27-.148-.27-.236-.019-.779-.012-1.558-.012-2.391.946.046,1.861.093,2.807.148Z" transform="translate(8.802 26.057)" fill="#2673e5"/>
    <path id="Path_569" data-name="Path 569" d="M16.164,42.668V40.1h2.769v2.566Z" transform="translate(5.879 25.998)" fill="#2673e5"/>
    <path id="Path_570" data-name="Path 570" d="M18.2,42.723V40.148h2.769v2.575Z" transform="translate(7.348 26.031)" fill="#2673e5"/>
    <path id="Path_571" data-name="Path 571" d="M18.926,8.972H16.172V6.406h2.754V8.972Z" transform="translate(5.885 1.733)" fill="#2673e5"/>
    <path id="Path_572" data-name="Path 572" d="M14.117,8.975V6.4H16.88V8.975Z" transform="translate(4.405 1.73)" fill="#2673e5"/>
    <path id="Path_573" data-name="Path 573" d="M37.153,8.008v2.606c-.908.155-1.8.3-2.735.464V8.519C35.3,8.357,36.205,8.182,37.153,8.008Z" transform="translate(19.024 2.886)" fill="#2673e5"/>
    <path id="Path_574" data-name="Path 574" d="M34.41,38.2l2.749.464v2.606c-.544-.1-1.089-.189-1.626-.3-.363-.074-.867-.04-1.042-.268-.189-.255-.074-.745-.081-1.135C34.4,39.144,34.41,38.707,34.41,38.2Z" transform="translate(18.998 24.63)" fill="#2673e5"/>
    <path id="Path_575" data-name="Path 575" d="M39.127,39.053v2.68c-.907-.194-1.8-.375-2.7-.564V38.554C37.333,38.716,38.22,38.884,39.127,39.053Z" transform="translate(20.47 24.883)" fill="#2673e5"/>
    <path id="Path_576" data-name="Path 576" d="M36.43,10.784V8.161c.886-.189,1.78-.377,2.694-.564V10.27l-2.694.511Z" transform="translate(20.473 2.59)" fill="#2673e5"/>
    <path id="Path_577" data-name="Path 577" d="M39.126,5.648V8.323c-.894.189-1.773.377-2.707.578,0-.846-.007-1.667.007-2.494,0-.058.1-.153.169-.172.839-.2,1.679-.39,2.532-.585Z" transform="translate(20.464 1.187)" fill="#2673e5"/>
    <path id="Path_578" data-name="Path 578" d="M32.4,11.343V8.837c.908-.155,1.808-.3,2.742-.458v2.553c-.9.129-1.8.27-2.742.411Z" transform="translate(17.57 3.153)" fill="#2673e5"/>
    <path id="Path_579" data-name="Path 579" d="M35.13,40.855c-.927-.155-1.82-.3-2.728-.451V37.9c.915.141,1.808.275,2.728.411v2.546Z" transform="translate(17.573 24.41)" fill="#2673e5"/>
    <path id="Path_580" data-name="Path 580" d="M35.14,42.742c-.927-.167-1.827-.335-2.742-.509V39.727c.929.16,1.828.31,2.742.464Z" transform="translate(17.57 25.728)" fill="#2673e5"/>
    <path id="Path_581" data-name="Path 581" d="M35.155,6.52V9.066c-.907.155-1.806.31-2.769.47,0-.812,0-1.579.015-2.345,0-.067.141-.181.227-.194.834-.175,1.674-.323,2.529-.476Z" transform="translate(17.561 1.815)" fill="#2673e5"/>
    <path id="Path_582" data-name="Path 582" d="M27.094,41.365c-.941-.095-1.854-.182-2.781-.27V38.75c.92.081,1.841.162,2.781.241Z" transform="translate(11.748 25.024)" fill="#2673e5"/>
    <path id="Path_583" data-name="Path 583" d="M24.31,39.38V37.035c.6.048,1.189.086,1.772.127.083.007.163.021.243.034.8.074.808.074.8.913,0,.464,0,.92-.007,1.376a.426.426,0,0,1-.04.129c-.9-.074-1.822-.155-2.769-.236Z" transform="translate(11.744 23.789)" fill="#2673e5"/>
    <path id="Path_584" data-name="Path 584" d="M8.012,11.349c.927.052,1.834.107,2.761.155v2.338l-2.761-.155V11.347Z" transform="translate(0.009 5.291)" fill="#2673e5"/>
    <path id="Path_585" data-name="Path 585" d="M8.012,39.422V37.077c.927-.06,1.834-.114,2.761-.175v2.326c-.913.06-1.82.127-2.761.194Z" transform="translate(0.009 23.693)" fill="#2673e5"/>
    <path id="Path_586" data-name="Path 586" d="M8,14.809h2.775v2.284c-.867,0-1.713.007-2.56-.007-.069,0-.2-.115-.2-.175C7.994,16.2,8,15.487,8,14.811Z" transform="translate(0 7.784)" fill="#2673e5"/>
    <path id="Path_587" data-name="Path 587" d="M8.012,18.825V16.508h2.761v2.317Z" transform="translate(0.009 9.007)" fill="#2673e5"/>
    <path id="Path_588" data-name="Path 588" d="M10.777,35.2v2.326c-.92.06-1.827.114-2.761.174V35.358c.906-.046,1.813-.1,2.761-.155Z" transform="translate(0.012 22.47)" fill="#2673e5"/>
    <path id="Path_589" data-name="Path 589" d="M10.777,19.914v2.319H8.016V19.914h2.759Z" transform="translate(0.012 11.46)" fill="#2673e5"/>
    <path id="Path_590" data-name="Path 590" d="M10.777,26.75v2.271H8.016V26.75h2.759Z" transform="translate(0.012 16.383)" fill="#2673e5"/>
    <path id="Path_591" data-name="Path 591" d="M8.012,30.733V28.45h2.761v2.284H8.012Z" transform="translate(0.009 17.607)" fill="#2673e5"/>
    <path id="Path_592" data-name="Path 592" d="M18.94,9.939v2.25H16.171V9.937H18.94Z" transform="translate(5.885 4.275)" fill="#2673e5"/>
    <path id="Path_593" data-name="Path 593" d="M16.886,9.934V12.2H14.117V9.934Z" transform="translate(4.405 4.273)" fill="#2673e5"/>
    <path id="Path_594" data-name="Path 594" d="M14.122,20.577V18.312h2.763v2.265H14.12Z" transform="translate(4.408 10.306)" fill="#2673e5"/>
    <path id="Path_595" data-name="Path 595" d="M14.117,30.63V28.37h2.775v2.259H14.117Z" transform="translate(4.405 17.549)" fill="#2673e5"/>
    <path id="Path_596" data-name="Path 596" d="M14.85,21.656v2.271H12.074V21.656Z" transform="translate(2.934 12.714)" fill="#2673e5"/>
    <path id="Path_597" data-name="Path 597" d="M14.125,21.664h2.761v2.259H14.125Z" transform="translate(4.411 12.72)" fill="#2673e5"/>
    <path id="Path_598" data-name="Path 598" d="M10.043,22.23V19.953h2.749V22.23H10.043Z" transform="translate(1.472 11.488)" fill="#2673e5"/>
    <path id="Path_599" data-name="Path 599" d="M14.846,25.027v2.265H12.07V25.027Z" transform="translate(2.931 15.142)" fill="#2673e5"/>
    <path id="Path_600" data-name="Path 600" d="M16.889,25.023v2.259H14.13V25.023h2.761Z" transform="translate(4.415 15.139)" fill="#2673e5"/>
    <path id="Path_601" data-name="Path 601" d="M12.8,26.727v2.264H10.043V26.727Z" transform="translate(1.472 16.366)" fill="#2673e5"/>
    <path id="Path_602" data-name="Path 602" d="M12.787,25.628h-2.74V23.344h2.742v2.284Z" transform="translate(1.475 13.93)" fill="#2673e5"/>
    <path id="Path_603" data-name="Path 603" d="M10.043,30.672v-2.25h2.749v2.25H10.043Z" transform="translate(1.472 17.587)" fill="#2673e5"/>
    <path id="Path_604" data-name="Path 604" d="M10.043,39.253V36.936c.906-.048,1.815-.088,2.742-.127v2.31c-.908.048-1.808.088-2.742.134Z" transform="translate(1.472 23.626)" fill="#2673e5"/>
    <path id="Path_605" data-name="Path 605" d="M14.847,33.43v2.243H12.078V33.43Z" transform="translate(2.937 21.193)" fill="#2673e5"/>
    <path id="Path_606" data-name="Path 606" d="M10.043,13.8V11.5h2.735V13.8Z" transform="translate(1.472 5.404)" fill="#2673e5"/>
    <path id="Path_607" data-name="Path 607" d="M12.074,32.322V30.07h2.769v2.252Z" transform="translate(2.934 18.773)" fill="#2673e5"/>
    <path id="Path_608" data-name="Path 608" d="M12.787,31.79v2.271h-2.74V31.79h2.742Z" transform="translate(1.475 20.012)" fill="#2673e5"/>
    <path id="Path_609" data-name="Path 609" d="M16.164,39.014V36.75h2.763v2.264H16.164Z" transform="translate(5.879 23.584)" fill="#2673e5"/>
    <path id="Path_610" data-name="Path 610" d="M14.121,36.75H16.89v2.259H14.121Z" transform="translate(4.408 23.584)" fill="#2673e5"/>
    <path id="Path_611" data-name="Path 611" d="M12.79,35.757H10.043V33.492h2.749v2.265Z" transform="translate(1.472 21.238)" fill="#2673e5"/>
    <path id="Path_612" data-name="Path 612" d="M12.078,14.938h2.769v2.271H12.078Z" transform="translate(2.937 7.877)" fill="#2673e5"/>
    <path id="Path_613" data-name="Path 613" d="M10.041,15.474V13.2h2.747v2.279H10.039Z" transform="translate(1.469 6.621)" fill="#2673e5"/>
    <path id="Path_614" data-name="Path 614" d="M12.773,20.556H10.05v-2.3h2.721v2.3Z" transform="translate(1.477 10.267)" fill="#2673e5"/>
    <path id="Path_615" data-name="Path 615" d="M14.858,26.71v2.246H12.071V26.71Z" transform="translate(2.932 16.354)" fill="#2673e5"/>
    <path id="Path_616" data-name="Path 616" d="M12.078,11.578h2.769v2.271H12.078Z" transform="translate(2.937 5.457)" fill="#2673e5"/>
    <path id="Path_617" data-name="Path 617" d="M10.05,30.1h2.73v2.284H10.05Z" transform="translate(1.477 18.794)" fill="#2673e5"/>
    <path id="Path_618" data-name="Path 618" d="M12.074,39.041V36.789h2.769v2.252Z" transform="translate(2.934 23.612)" fill="#2673e5"/>
    <path id="Path_619" data-name="Path 619" d="M14.853,38.469v2.264H12.078V38.471h2.775Z" transform="translate(2.937 24.822)" fill="#2673e5"/>
    <path id="Path_620" data-name="Path 620" d="M12.074,37.361V35.109h2.763v2.252Z" transform="translate(2.934 22.402)" fill="#2673e5"/>
    <path id="Path_621" data-name="Path 621" d="M16.889,16.637V18.9H14.121V16.637H16.89Z" transform="translate(4.408 9.1)" fill="#2673e5"/>
    <path id="Path_622" data-name="Path 622" d="M14.831,18.892H12.082V16.613h2.749Z" transform="translate(2.94 9.083)" fill="#2673e5"/>
    <path id="Path_623" data-name="Path 623" d="M14.121,23.344H16.89v2.25H14.121Z" transform="translate(4.408 13.93)" fill="#2673e5"/>
    <path id="Path_624" data-name="Path 624" d="M16.168,38.426h2.756V40.69H16.168V38.426Z" transform="translate(5.882 24.791)" fill="#2673e5"/>
    <path id="Path_625" data-name="Path 625" d="M16.16,10.494V8.27h2.769v2.224H16.16Z" transform="translate(5.877 3.075)" fill="#2673e5"/>
    <path id="Path_626" data-name="Path 626" d="M14.837,22.241H12.074V19.977h2.763Z" transform="translate(2.934 11.505)" fill="#2673e5"/>
    <path id="Path_627" data-name="Path 627" d="M14.122,30.05h2.763V32.3H14.12V30.05Z" transform="translate(4.408 18.759)" fill="#2673e5"/>
    <path id="Path_628" data-name="Path 628" d="M58.529,46.775a12.242,12.242,0,0,0-1.493-4.925c-.275-.478-.557-.76-1.142-.7a9.824,9.824,0,0,1-1.471-.06c-.638-.026-1.271-.053-1.921-.086,0-.963-.021-1.882.007-2.8a.422.422,0,0,0-.344-.5c-1.089-.33-2.176-.686-3.285-.989-.631-.167-1.29-.248-1.956-.37v-.927c0-1.061,0-1.054,1-1.41a16.38,16.38,0,0,0,4.933-2.432,10.775,10.775,0,0,0,3.533-4.966,13.711,13.711,0,0,0,.55-5.577,10.475,10.475,0,0,0-1.1-4.145A6.163,6.163,0,0,0,53.6,14.456a11.1,11.1,0,0,0-6.64-1.466c-.685.041-1.369.088-2.061.129l-.041-.633-2.68.337v-2.4l2.687-.4V6.91c-3.246.458-6.476.913-9.736,1.376v5.962c-2.037.086-4.051.181-6.094.275V12.144c.881-.046,1.734-.1,2.58-.148V8.644c-3.507.194-6.982.39-10.5.592v5.718H14.121v2.929h2.721v2.271H14.128v2.883h3.5v9.271H20.3v2.245H17.637V38.08h2.68v2.245H17.6v9.252H14.128v5.831h2.7v2.238h4.321V63.4c2.372.108,4.7.215,7.075.316V61.5l2.714.236V58.058c1.426.114,2.8.22,4.214.327v5.928c3.258.464,6.476.915,9.736,1.378V59.475c.585.04,1.1.081,1.619.114a15.675,15.675,0,0,0,5.308-.37,8.27,8.27,0,0,0,6.3-6.175,17.545,17.545,0,0,0,.411-6.268Zm-6-28.685c.86-.127,1.734-.255,2.654-.4V20.4l-2.654.329Zm-.014,6.76,2.661-.256V27.3l-2.661.181ZM24.691,17.64c.927-.046,1.82-.086,2.735-.134v2.3c-.915.041-1.808.081-2.735.127Zm1.658,8.9v2.2H23.642v-2.2h2.707ZM21.2,17.748h2.7v2.231H21.2V17.747Zm-1.484,8.129V23.66h2.721v2.219H19.718ZM20.41,54.77H17.689V52.539H20.41Zm2.809-5.817H20.484V46.748h2.735Zm0-2.89H20.484v-2.21h2.735ZM23.3,35.185h2.709v2.236H23.306V35.185Zm4.133,25.3H24.7V58.278h2.74Zm2.374-38.8q4.242-.218,8.485-.409c5.738-.148,5.584,2.365,5.625,4.185.079,3.354-1.3,6.37-8.2,6.915-.236.014-5.826.255-5.907.255V21.686ZM34.52,55.108c-.449-.028-2.25-.108-2.707-.129v-2.21H34.52Zm6.989.5c-.671-.055-2.479-.2-2.707-.215V53.057l2.708.189Zm3.776-7.292c-.167.638-.636,3.031-6.18,3.024-1.359,0-9.1-.322-9.3-.322V40.074c.175,0,5.093.108,5.914.148,8.64.471,8.848,2.164,9.722,5.315a5.307,5.307,0,0,1-.155,2.781Zm9.9,3.139c-.886-.1-1.755-.208-2.654-.31V48.5c.874.089,1.755.17,2.654.258Z" transform="translate(4.408 2.096)" fill="#2673e5"/>
  </g>
</svg>
