<svg xmlns="http://www.w3.org/2000/svg" width="146.891" height="102.988" viewBox="0 0 146.891 102.988">
  <g id="world-intellectual-property-organization-wipo-seeklogo.com" transform="translate(188.5 -24.5)">
    <path id="Path_442" data-name="Path 442" d="M-188.5,341.5h2.657l1.915,7.147h0l2.039-7.147h2.657l2.039,7.147h0l1.915-7.147h2.657l-3.089,9.8h-2.8l-2.039-6.961h0l-2.1,6.961h-2.78Z" transform="translate(0 -251.711)" fill="#2673e5"/>
    <path id="Path_443" data-name="Path 443" d="M-98.3,341.5h2.657v9.8H-98.3Z" transform="translate(-71.622 -251.711)" fill="#2673e5"/>
    <path id="Path_444" data-name="Path 444" d="M-66.379,341.5h6.591c2.78,0,3.46,1.668,3.46,2.966A2.982,2.982,0,0,1-59.6,347.8h-4.14v3.522H-66.4V341.5Zm2.657,4.572h2.842c.8,0,1.792,0,1.792-1.359s-.8-1.421-1.545-1.421h-3.089Z" transform="translate(-96.952 -251.711)" fill="#2673e5"/>
    <path id="Path_445" data-name="Path 445" d="M2.1,340.4c5.293,0,6.1,3.151,6.1,5.17,0,2.039-.8,5.17-6.1,5.17S-4,347.609-4,345.57-3.156,340.4,2.1,340.4Zm0,8.506a3.337,3.337,0,0,0,0-6.673,3.337,3.337,0,0,0,0,6.673Z" transform="translate(-146.5 -250.837)" fill="#2673e5"/>
    <path id="Path_446" data-name="Path 446" d="M-67.806,36.9a5.133,5.133,0,0,0,1.3-3.213c-.062-3.707-5.046-6.714-12.955-9.124l-.247-.062v1.3l.185.062A36.13,36.13,0,0,1-70.463,29.2c2.1,1.236,3.213,2.533,3.213,3.831a3.7,3.7,0,0,1-1.545,2.78c-2.2-1.936-5.849-3.543-10.525-4.964l-.309-.062v1.3l.185.062a36.13,36.13,0,0,1,9.062,3.337c.371.247.8.494,1.174.741a24.387,24.387,0,0,1-5.108,2.719c-1.483-.618-3.151-1.174-4.943-1.73l-.309-.062v1.3l.185.062c1.3.309,2.472.68,3.584.989a111.746,111.746,0,0,1-22.141,4.449v3.275c9.309-1.236,17.2-3.089,22.759-5.417a19.389,19.389,0,0,0,2.533-1.174A16.651,16.651,0,0,1-70.3,41.8c.371.247.8.494,1.174.741a24.387,24.387,0,0,1-5.108,2.719c-1.483-.618-3.151-1.174-4.943-1.73l-.309-.062v1.359l.185.062c1.3.309,2.472.68,3.584.989a111.746,111.746,0,0,1-22.141,4.449V53.54c9.309-1.236,17.2-3.089,22.759-5.417a19.389,19.389,0,0,0,2.533-1.174,15.962,15.962,0,0,1,2.286,1.174c.371.247.8.494,1.174.741a24.388,24.388,0,0,1-5.108,2.719c-1.483-.618-3.151-1.174-4.943-1.73l-.309-.062v1.3l.185.062c1.3.309,2.472.68,3.584.989a111.746,111.746,0,0,1-22.141,4.449v3.275c9.309-1.236,17.2-3.089,22.759-5.417a19.391,19.391,0,0,0,2.533-1.174A16.651,16.651,0,0,1-70.2,54.447c.371.247.8.494,1.174.741a24.387,24.387,0,0,1-5.108,2.719,46.832,46.832,0,0,0-4.943-1.73l-.556-.124v1.3l.185.062c1.3.309,2.472.68,3.584.989A111.746,111.746,0,0,1-98,62.85V66c9.309-1.236,17.2-3.089,22.759-5.417a19.391,19.391,0,0,0,2.533-1.174,16.651,16.651,0,0,1,2.348,1.174c.371.247.8.494,1.174.741a24.388,24.388,0,0,1-5.108,2.719,46.831,46.831,0,0,0-4.943-1.73l-.309-.062v1.3l.185.062c1.3.309,2.472.68,3.584.989a111.746,111.746,0,0,1-22.141,4.449v3.275c9.309-1.236,17.2-3.089,22.759-5.417a25.226,25.226,0,0,0,2.6-1.174,16.652,16.652,0,0,1,2.348,1.174c.371.247.8.494,1.174.741a23.462,23.462,0,0,1-6.467,3.213c-5.417,1.915-13.14,3.46-22.326,4.511v3.275c9.309-1.236,17.2-3.089,22.759-5.417a21.652,21.652,0,0,0,7.27-4.449A3.011,3.011,0,0,1-67,70.82c.062,2.224-3.028,4.511-8.506,6.405a116.4,116.4,0,0,1-22.429,4.428v3.275c9.309-1.236,17.2-3.089,22.759-5.417,5.54-2.286,8.877-4.984,8.877-8.074a4.97,4.97,0,0,0-1.3-3.151,5.134,5.134,0,0,0,1.3-3.213,4.679,4.679,0,0,0-1.3-3.089,5.134,5.134,0,0,0,1.3-3.213,4.97,4.97,0,0,0-1.3-3.151,5.6,5.6,0,0,0,1.236-3.213,4.679,4.679,0,0,0-1.3-3.089,5.133,5.133,0,0,0,1.3-3.213,4.679,4.679,0,0,0-1.3-3.089,5.133,5.133,0,0,0,1.3-3.213A6.321,6.321,0,0,0-67.806,36.9Zm-4.119,3.192a15.269,15.269,0,0,0,3.769-2.78,3.011,3.011,0,0,1,.8,2.039A3.7,3.7,0,0,1-68.9,42.13,14.452,14.452,0,0,0-71.925,40.091Zm4.614,24.365a3.7,3.7,0,0,1-1.545,2.78A16.258,16.258,0,0,0-71.884,65.2a15.269,15.269,0,0,0,3.769-2.78,3.262,3.262,0,0,1,.8,2.039Zm0-6.282a3.7,3.7,0,0,1-1.545,2.78,16.258,16.258,0,0,0-3.028-2.039,15.269,15.269,0,0,0,3.769-2.78,3.262,3.262,0,0,1,.8,2.039Zm0-6.3a3.7,3.7,0,0,1-1.545,2.78,16.258,16.258,0,0,0-3.028-2.039,15.269,15.269,0,0,0,3.769-2.78,3.262,3.262,0,0,1,.8,2.039Zm0-6.282a3.7,3.7,0,0,1-1.545,2.78,16.258,16.258,0,0,0-3.028-2.039,15.269,15.269,0,0,0,3.769-2.78,3.262,3.262,0,0,1,.8,2.039Z" transform="translate(-71.861)" fill="#2673e5"/>
    <path id="Path_447" data-name="Path 447" d="M-101.3,415.8h1.112l1.05,3.707h0l1.174-3.707h1.05l1.174,3.707h0l1.112-3.707h1.05l-1.606,4.819h-1.05l-1.174-3.707h0l-1.174,3.707h-1.112Z" transform="translate(-69.24 -310.708)" fill="#2673e5"/>
    <path id="Path_448" data-name="Path 448" d="M-58.8,417.733c0-1.359.8-2.533,2.842-2.533s2.842,1.174,2.842,2.533-.8,2.533-2.842,2.533C-58,420.184-58.8,419.031-58.8,417.733Zm4.552,0a1.793,1.793,0,0,0-1.792-1.792,1.793,1.793,0,0,0-1.792,1.792,1.793,1.793,0,0,0,1.792,1.792,1.667,1.667,0,0,0,1.792-1.545Z" transform="translate(-102.987 -310.231)" fill="#2673e5"/>
    <path id="Path_449" data-name="Path 449" d="M-24.638,415.8h3.028c1.236,0,1.606.556,1.606,1.3a1.183,1.183,0,0,1-.8,1.174h0c.556.124.68.618.68,1.3a2.562,2.562,0,0,0,.185.989h-1.112a1.567,1.567,0,0,1-.124-.741c0-.68-.124-1.174-.8-1.174h-1.73v1.915H-24.7Zm2.719,2.1c.556,0,.865-.185.865-.68,0-.556-.309-.68-.865-.68h-1.73v1.421h1.73Z" transform="translate(-130.064 -310.708)" fill="#2673e5"/>
    <path id="Path_450" data-name="Path 450" d="M5.8,415.8h.989v4.016h2.9v.8H5.8Z" transform="translate(-154.282 -310.708)" fill="#2673e5"/>
    <path id="Path_451" data-name="Path 451" d="M31.3,415.8h2.6c1.854,0,2.348,1.05,2.348,2.472a2.094,2.094,0,0,1-2.1,2.348H31.3Zm.989,4.016H33.71c.741,0,1.483-.247,1.483-1.668,0-1.545-.989-1.668-1.545-1.668H32.289Z" transform="translate(-174.53 -310.708)" fill="#2673e5"/>
    <path id="Path_452" data-name="Path 452" d="M-98.6,458h1.606v4.819H-98.6Z" transform="translate(-71.384 -344.216)" fill="#2673e5"/>
    <path id="Path_453" data-name="Path 453" d="M-82.738,458h1.854l2.224,3.028h0V458h1.545v4.819h-1.792l-2.286-3.028h0v3.028H-82.8V458Z" transform="translate(-83.93 -344.216)" fill="#2673e5"/>
    <path id="Path_454" data-name="Path 454" d="M-49.2,458h5.108v1.05h-1.73v3.707h-1.606V459.05h-1.73V458Z" transform="translate(-110.61 -344.216)" fill="#2673e5"/>
    <path id="Path_455" data-name="Path 455" d="M-18.479,458h4.8v1.05h-3.213v.865h3.028v.989h-3.028v.865h3.213v1.05H-18.5C-18.479,462.819-18.479,458-18.479,458Z" transform="translate(-134.987 -344.216)" fill="#2673e5"/>
    <path id="Path_456" data-name="Path 456" d="M11.8,458h1.606v3.646h2.9v1.112H11.8Z" transform="translate(-159.046 -344.216)" fill="#2673e5"/>
    <path id="Path_457" data-name="Path 457" d="M40.3,458h1.586v3.646h2.966v1.112h-4.49V458Z" transform="translate(-181.676 -344.216)" fill="#2673e5"/>
    <path id="Path_458" data-name="Path 458" d="M68.7,458h4.819v1.05H70.306v.865h3.028v.989H70.306v.865h3.213v1.05H68.7Z" transform="translate(-204.227 -344.216)" fill="#2673e5"/>
    <path id="Path_459" data-name="Path 459" d="M103.755,460.728c-.185,1.05-.741,2.039-3.028,2.039-2.039,0-3.028-.865-3.028-2.533,0-1.607.927-2.533,3.028-2.533,1.483,0,2.657.309,3.028,2.039h-1.792a1.154,1.154,0,0,0-1.236-.927,1.3,1.3,0,0,0-1.359,1.483c0,.8.309,1.483,1.359,1.483a1.071,1.071,0,0,0,1.236-.927Z" transform="translate(-227.254 -343.978)" fill="#2673e5"/>
    <path id="Path_460" data-name="Path 460" d="M131.6,458h5.108v1.05h-1.792v3.707H133.33V459.05H131.6Z" transform="translate(-254.172 -344.216)" fill="#2673e5"/>
    <path id="Path_461" data-name="Path 461" d="M162.1,458h1.606v2.842c0,.8.371.989,1.112.989s1.112-.247,1.112-.989V458h1.607v3.089c0,1.3-.989,1.854-2.719,1.854s-2.719-.494-2.719-1.854Z" transform="translate(-278.39 -344.216)" fill="#2673e5"/>
    <path id="Path_462" data-name="Path 462" d="M194.763,458h1.977l2.039,4.819h-1.73l-.309-.8h-2.1l-.309.8H192.6Zm.927,1.236h0l-.68,1.792h1.359Z" transform="translate(-302.609 -344.216)" fill="#2673e5"/>
    <path id="Path_463" data-name="Path 463" d="M227.7,458h1.606v3.646h2.9v1.112H227.7Z" transform="translate(-330.479 -344.216)" fill="#2673e5"/>
    <path id="Path_464" data-name="Path 464" d="M272.3,458h3.522c1.3,0,1.792.68,1.792,1.606a1.505,1.505,0,0,1-1.668,1.606h-2.039v1.607H272.3V458Zm1.607,2.224h1.421c.433,0,.618-.185.618-.618s-.185-.618-.618-.618h-1.421Z" transform="translate(-365.894 -344.216)" fill="#2673e5"/>
    <path id="Path_465" data-name="Path 465" d="M304.9,458h3.893c1.174,0,1.606.556,1.606,1.359a1.016,1.016,0,0,1-.741,1.112h0a.8.8,0,0,1,.556.865c.062.927.124,1.236.309,1.483h-1.792a1.521,1.521,0,0,1-.062-.741c0-.741-.247-.865-.68-.865h-1.483v1.606H304.9Zm1.606,2.163h1.483c.371,0,.618-.185.618-.556,0-.309-.185-.494-.618-.494h-1.483Z" transform="translate(-391.779 -344.216)" fill="#2673e5"/>
    <path id="Path_466" data-name="Path 466" d="M340.651,457.4c1.668,0,3.151.556,3.151,2.533s-1.421,2.533-3.151,2.533c-1.668,0-3.151-.556-3.151-2.533S338.921,457.4,340.651,457.4Zm0,4.016a1.484,1.484,0,1,0-1.421-1.545v.062a1.367,1.367,0,0,0,1.174,1.483Z" transform="translate(-417.665 -343.74)" fill="#2673e5"/>
    <path id="Path_467" data-name="Path 467" d="M375,458h3.5c1.3,0,1.792.68,1.792,1.606a1.505,1.505,0,0,1-1.668,1.606h-2.039v1.607H375V458Zm1.606,2.224h1.421c.433,0,.618-.185.618-.618s-.185-.618-.618-.618h-1.421Z" transform="translate(-447.442 -344.216)" fill="#2673e5"/>
    <path id="Path_468" data-name="Path 468" d="M407.6,458h4.819v1.05h-3.213v.865h3.028v.989h-3.028v.865h3.213v1.05H407.6Z" transform="translate(-473.327 -344.216)" fill="#2673e5"/>
    <path id="Path_469" data-name="Path 469" d="M437.562,458h3.831c1.174,0,1.606.556,1.606,1.359a1.016,1.016,0,0,1-.741,1.112h0a.8.8,0,0,1,.556.865c.062.927.124,1.236.309,1.483h-1.73a3.1,3.1,0,0,1-.124-.741c0-.741-.247-.865-.68-.865h-1.483v1.606H437.5V458Zm1.607,2.163h1.545c.371,0,.618-.185.618-.556,0-.309-.185-.494-.618-.494h-1.545Z" transform="translate(-497.069 -344.216)" fill="#2673e5"/>
    <path id="Path_470" data-name="Path 470" d="M469.3,458h5.108v1.05h-1.73v3.707h-1.586V459.05h-1.73V458Z" transform="translate(-522.32 -344.216)" fill="#2673e5"/>
    <path id="Path_471" data-name="Path 471" d="M498.663,461.575,496.5,458.3h1.854l1.05,2.039,1.05-2.039h1.854l-2.163,3.275v1.483h-1.607Z" transform="translate(-543.917 -344.455)" fill="#2673e5"/>
    <path id="Path_472" data-name="Path 472" d="M-101.3,502.433c0-1.359.8-2.533,2.842-2.533s2.842,1.174,2.842,2.533-.8,2.533-2.842,2.533S-101.3,503.793-101.3,502.433Zm4.614,0a1.793,1.793,0,0,0-1.792-1.792,1.793,1.793,0,0,0-1.792,1.792,1.793,1.793,0,0,0,1.792,1.792,1.667,1.667,0,0,0,1.792-1.545Z" transform="translate(-69.24 -377.487)" fill="#2673e5"/>
    <path id="Path_473" data-name="Path 473" d="M-66.838,500.5h3.028c1.236,0,1.606.556,1.606,1.3a1.072,1.072,0,0,1-.8,1.174h0c.556.124.68.618.68,1.3a2.561,2.561,0,0,0,.185.989h-1.112a1.567,1.567,0,0,1-.124-.741c0-.68-.124-1.174-.8-1.174h-1.73v1.915H-66.9V500.5Zm2.719,2.163c.556,0,.865-.185.865-.68,0-.556-.309-.68-.865-.68h-1.73v1.421Z" transform="translate(-96.555 -377.963)" fill="#2673e5"/>
    <path id="Path_474" data-name="Path 474" d="M-32.763,504.843h-.618l-.124-.618a2.3,2.3,0,0,1-1.854.741c-2.039,0-2.842-1.174-2.842-2.533a2.472,2.472,0,0,1,2.78-2.533c1.483,0,2.41.741,2.533,1.668H-34a1.342,1.342,0,0,0-1.421-.927,1.58,1.58,0,0,0-1.73,1.792,1.506,1.506,0,0,0,1.359,1.73h.309a1.534,1.534,0,0,0,1.668-1.236h-1.421v-.741h2.472Z" transform="translate(-119.344 -377.487)" fill="#2673e5"/>
    <path id="Path_475" data-name="Path 475" d="M-3.8,500.5h1.174l2.163,4.819H-1.575l-.494-1.174H-4.294l-.494,1.174H-5.9Zm1.421,2.842-.8-2.039-.8,2.039Z" transform="translate(-144.992 -377.963)" fill="#2673e5"/>
    <path id="Path_476" data-name="Path 476" d="M26.2,500.5h1.174l2.842,3.584h0V500.5H31.2v4.819H30.093l-2.9-3.584h0v3.584H26.2Z" transform="translate(-170.48 -377.963)" fill="#2673e5"/>
    <path id="Path_477" data-name="Path 477" d="M58.8,500.5h.989v4.819H58.8Z" transform="translate(-196.366 -377.963)" fill="#2673e5"/>
    <path id="Path_478" data-name="Path 478" d="M70.2,504.578l3.275-3.337H70.385V500.5h4.387v.741L71.5,504.516h3.4v.8H70.262Z" transform="translate(-205.418 -377.963)" fill="#2673e5"/>
    <path id="Path_479" data-name="Path 479" d="M98.9,500.5h1.174l2.163,4.819h-1.112l-.494-1.174H98.406l-.494,1.174H96.8Zm1.421,2.842-.8-2.039-.8,2.039Z" transform="translate(-226.54 -377.963)" fill="#2673e5"/>
    <path id="Path_480" data-name="Path 480" d="M126.492,501.241H124.7V500.5h4.634v.741h-1.792v4.016h-.989v-4.016Z" transform="translate(-248.693 -377.963)" fill="#2673e5"/>
    <path id="Path_481" data-name="Path 481" d="M153.1,500.5h.989v4.819H153.1Z" transform="translate(-271.244 -377.963)" fill="#2673e5"/>
    <path id="Path_482" data-name="Path 482" d="M165.1,502.433c0-1.359.8-2.533,2.842-2.533s2.842,1.174,2.842,2.533-.8,2.533-2.842,2.533S165.1,503.793,165.1,502.433Zm4.634,0a1.792,1.792,0,1,0-1.792,1.792,1.666,1.666,0,0,0,1.792-1.545v-.247Z" transform="translate(-280.773 -377.487)" fill="#2673e5"/>
    <path id="Path_483" data-name="Path 483" d="M199.5,500.5h1.174l2.842,3.584h0V500.5h.989v4.819h-1.112l-2.9-3.584h0v3.584H199.5Z" transform="translate(-308.088 -377.963)" fill="#2673e5"/>
  </g>
</svg>
