<svg xmlns="http://www.w3.org/2000/svg" width="100.03" height="78.703" viewBox="0 0 100.03 78.703">
  <g id="Group_562" data-name="Group 562" transform="translate(-247.623 -34.589)">
    <g id="Group_552" data-name="Group 552">
      <g id="Group_522" data-name="Group 522">
        <path id="Path_3911" data-name="Path 3911" d="M298.659,77.173s14.7-12.021,15.209-20.714.416-11.306.416-11.306-15.287-9.291-15.945-9.2-17.742,8.8-17.742,8.8S278.019,69.081,298.659,77.173Z" fill="#fff"/>
      </g>
      <g id="Group_525" data-name="Group 525">
        <g id="Group_524" data-name="Group 524">
          <g id="Group_523" data-name="Group 523">
            <path id="Path_3912" data-name="Path 3912" d="M297.58,34.993a.493.493,0,0,0-.123.046l-17.2,9.226a.489.489,0,0,0-.263.442c-.055,11.026,2.193,18.055,5.506,22.985s7.67,7.734,11.711,10.35a.492.492,0,0,0,.521,0c4.066-2.575,8.45-5.336,11.812-10.233s5.68-11.9,5.735-22.928a.49.49,0,0,0-.259-.446l-17.106-9.4a.49.49,0,0,0-.336-.048Zm.1,1.042,16.6,9.118c-.1,10.715-2.342,17.436-5.547,22.1-3.166,4.611-7.271,7.266-11.259,9.791-3.962-2.565-8.042-5.261-11.161-9.9-3.158-4.7-5.339-11.442-5.327-22.157Z"/>
          </g>
        </g>
      </g>
      <g id="Group_526" data-name="Group 526">
        <path id="Path_3913" data-name="Path 3913" d="M314.461,45.151s-16.233-9.293-16.891-9.206-16.8,8.805-16.8,8.805-3.21,22.455,16.7,32.764C297.476,77.514,316.424,68.613,314.461,45.151Z" fill="#3356a3"/>
      </g>
      <g id="Group_527" data-name="Group 527">
        <path id="Path_3914" data-name="Path 3914" d="M311.674,43.942s-13.548-8.084-14.1-8-14.257,8-14.257,8-1.934,20.174,14.178,33.572C297.495,77.514,313.322,67.4,311.674,43.942Z" fill="#4872e0"/>
      </g>
      <g id="Group_528" data-name="Group 528">
        <path id="Path_3915" data-name="Path 3915" d="M297.734,78.044l8.724-7.014,3.9-5.653,1.972-5.7-2.9-2.51-3.482-.266-4.806-.533-4.649.3-2.861,1.016-4.861,1.33-1.8,1.718L285.163,63.1l-1.4.18,7.712,11.26Z" fill="#f1cc30"/>
      </g>
      <g id="Group_540" data-name="Group 540">
        <g id="Group_529" data-name="Group 529">
          <path id="Path_3916" data-name="Path 3916" d="M301.625,69.073a.658.658,0,0,0-.669.64c-.015,1.233-.541,1.96-1.524,2.1a3.021,3.021,0,0,1-3.11-1.75c0-.014-.009-.028-.014-.041a.672.672,0,0,0-.851-.391.642.642,0,0,0-.4.827,4.3,4.3,0,0,0,3.992,2.675,3.818,3.818,0,0,0,.585-.041,3.113,3.113,0,0,0,2.655-3.369v0A.656.656,0,0,0,301.625,69.073Z" fill="#ceaf2b"/>
        </g>
        <g id="Group_530" data-name="Group 530">
          <path id="Path_3917" data-name="Path 3917" d="M286.95,69.721a4.274,4.274,0,0,0,.567.039,3.928,3.928,0,0,0,1.347-.224,2.84,2.84,0,0,0,1.908-3.055v0a.66.66,0,0,0-.714-.6.653.653,0,0,0-.614.694,1.54,1.54,0,0,1-1.043,1.742,2.869,2.869,0,0,1-2.464-.339C286.269,68.568,286.6,69.152,286.95,69.721Z" fill="#ceaf2b"/>
        </g>
        <g id="Group_531" data-name="Group 531">
          <path id="Path_3918" data-name="Path 3918" d="M292.823,61.055a3,3,0,0,0-1.452,3.373.665.665,0,0,0,.632.452.679.679,0,0,0,.205-.031.643.643,0,0,0,.433-.812,1.718,1.718,0,0,1,.888-1.886c.984-.6,2.245-.348,3.372.681l.021.02a.679.679,0,0,0,.94-.048.634.634,0,0,0-.048-.914C295.937,60.174,294,60.334,292.823,61.055Z" fill="#ceaf2b"/>
        </g>
        <g id="Group_532" data-name="Group 532">
          <path id="Path_3919" data-name="Path 3919" d="M308,64.292a1.731,1.731,0,0,0,.8-1.184v.01a.648.648,0,0,0-.539-.728.664.664,0,0,0-.775.519.452.452,0,0,1-.228.316c-.253.163-1.076.488-3.238-.02-2.145-.505-1.715-3.069-1.7-3.178a.649.649,0,0,0-.54-.75.665.665,0,0,0-.772.524c-.246,1.335,0,4.028,2.694,4.66.153.036.3.064.447.094a1.428,1.428,0,0,1,.592,1.3,1.382,1.382,0,0,1-1.093.965h0a.644.644,0,0,0-.444.807.669.669,0,0,0,.83.431,2.644,2.644,0,0,0,2.018-1.975,2.37,2.37,0,0,0-.145-1.318H306A3.612,3.612,0,0,0,308,64.292Z" fill="#ceaf2b"/>
        </g>
        <g id="Group_533" data-name="Group 533">
          <path id="Path_3920" data-name="Path 3920" d="M311.433,63.743a8.481,8.481,0,0,0-2.35.538.643.643,0,0,0-.4.829.672.672,0,0,0,.852.389,10.139,10.139,0,0,1,1.326-.36C311.027,64.666,311.224,64.2,311.433,63.743Z" fill="#ceaf2b"/>
          <path id="Path_3921" data-name="Path 3921" d="M299.85,76.237a1.154,1.154,0,0,1-.018-.31,7.135,7.135,0,0,1-3.474-.247,5.356,5.356,0,0,1-3.321-2.58,5.921,5.921,0,0,1-.371-4.6c.633-1.9,3.189-2.165,4.637-2.294,1.052.2,1.329.532,1.395.67a.752.752,0,0,1-.113.669.637.637,0,0,0,.249.882.677.677,0,0,0,.909-.242,1.84,1.84,0,0,0-.435-2.567,2.309,2.309,0,0,0,.532-.535,2.783,2.783,0,0,0,.337-2.262.666.666,0,0,0-.793-.494.647.647,0,0,0-.509.766,1.609,1.609,0,0,1-.144,1.27,1.2,1.2,0,0,1-.795.472c-.156.029-.381.047-.653.071-1.611.142-4.962.436-5.877,3.193a7.2,7.2,0,0,0,.458,5.593c.079.146.168.284.256.422-.106.012-.218.019-.329.028.5.4.984.818,1.464,1.246a2.015,2.015,0,0,1,.184.2,7.045,7.045,0,0,0,2.533,1.325,9.743,9.743,0,0,0,2.687.426c.155,0,.309-.009.463-.019A1.863,1.863,0,0,1,299.85,76.237Z" fill="#ceaf2b"/>
          <path id="Path_3922" data-name="Path 3922" d="M307.438,59.8a3.9,3.9,0,0,0-.46-1.142,6.851,6.851,0,0,1,4.073,1.281,7.689,7.689,0,0,1,1.588,1.519,12.846,12.846,0,0,1,.43-1.494,8.808,8.808,0,0,0-1.241-1.072,8.007,8.007,0,0,0-5.914-1.428,7.115,7.115,0,0,0-3.436-1.32c-2.221-.3-4.974.1-6.123,1.142a7.283,7.283,0,0,0-2.828-.351c-2.568.161-5.174,1.474-6.2,3.123a4.687,4.687,0,0,0-.52,1.166,6.844,6.844,0,0,0-3.495,2.6q.434.549.832,1.153a5.612,5.612,0,0,1,2.495-2.307,4.991,4.991,0,0,0,1.194,2.945.681.681,0,0,0,.941.061.636.636,0,0,0,.063-.914,3.444,3.444,0,0,1-.365-4.039c.8-1.29,3.013-2.366,5.141-2.5a4.9,4.9,0,0,1,4.155,1.53.679.679,0,0,0,.933.124.634.634,0,0,0,.128-.906l-.018-.023a5.218,5.218,0,0,0-1.122-1.005,8.872,8.872,0,0,1,4.6-.517c1.255.172,3.425.743,3.843,2.648a.662.662,0,0,0,.647.512.671.671,0,0,0,.142-.014.648.648,0,0,0,.514-.767Z" fill="#ceaf2b"/>
        </g>
        <g id="Group_534" data-name="Group 534">
          <path id="Path_3923" data-name="Path 3923" d="M308.1,64.454a1.925,1.925,0,0,0,.893-1.308h0a.838.838,0,0,0-.7-.944.869.869,0,0,0-.645.135.825.825,0,0,0-.358.54.27.27,0,0,1-.143.189c-.182.117-.94.457-3.084-.046-1.965-.463-1.566-2.859-1.548-2.96a.815.815,0,0,0-.142-.626.871.871,0,0,0-1.556.333c-.257,1.4.006,4.214,2.84,4.879.132.031.257.056.383.082l.027.005a1.242,1.242,0,0,1,.488,1.067,1.2,1.2,0,0,1-.962.835.836.836,0,0,0-.577,1.044.861.861,0,0,0,1.063.562,2.854,2.854,0,0,0,2.168-2.129,2.538,2.538,0,0,0-.063-1.153h.014A3.819,3.819,0,0,0,308.1,64.454Zm-2.1.117-.381,0,.109.264a2.172,2.172,0,0,1,.136,1.205,2.47,2.47,0,0,1-1.884,1.835.473.473,0,0,1-.586-.305.453.453,0,0,1,.293-.563,1.574,1.574,0,0,0,1.254-1.135,1.625,1.625,0,0,0-.671-1.468l-.148-.048c-.121-.024-.243-.049-.37-.079-2.551-.6-2.781-3.166-2.546-4.441a.474.474,0,0,1,.847-.181.443.443,0,0,1,.077.342c-.021.116-.475,2.85,1.843,3.4,2.154.507,3.05.214,3.381,0a.639.639,0,0,0,.324-.447.457.457,0,0,1,.2-.294.478.478,0,0,1,.351-.073.455.455,0,0,1,.382.5h0a1.538,1.538,0,0,1-.712,1.051A3.39,3.39,0,0,1,306,64.571Z" fill="#ceaf2b"/>
        </g>
        <g id="Group_535" data-name="Group 535">
          <path id="Path_3924" data-name="Path 3924" d="M300.006,65.189a2.972,2.972,0,0,0,.363-2.4.864.864,0,0,0-1.026-.64.842.842,0,0,0-.656,1.007,1.429,1.429,0,0,1-.116,1.105,1.006,1.006,0,0,1-.671.4c-.133.024-.333.042-.564.062l-.073.006c-1.652.146-5.089.448-6.044,3.325a7.344,7.344,0,0,0,.471,5.74c.031.058.065.115.1.173-.071.006-.145.009-.217.013.145.117.293.229.436.348l.133-.011.3-.047L292.277,74c-.082-.13-.165-.259-.238-.393a6.973,6.973,0,0,1-.446-5.449c.875-2.636,4.138-2.923,5.707-3.061l.071-.006c.241-.021.45-.04.594-.066a1.408,1.408,0,0,0,.938-.568,1.8,1.8,0,0,0,.164-1.4.458.458,0,0,1,.359-.541.473.473,0,0,1,.562.358,2.6,2.6,0,0,1-.31,2.1,2.137,2.137,0,0,1-.487.49l-.21.152.209.153a1.655,1.655,0,0,1,.382,2.321.478.478,0,0,1-.641.17.448.448,0,0,1-.186-.606.95.95,0,0,0,.131-.86c-.1-.2-.422-.565-1.536-.776l-.027-.005-.028,0c-1.338.119-4.121.366-4.8,2.426a6.069,6.069,0,0,0,.383,4.743,5.573,5.573,0,0,0,3.438,2.672,7.331,7.331,0,0,0,3.529.259,1.055,1.055,0,0,1,.042-.4,6.865,6.865,0,0,1-3.462-.229,5.187,5.187,0,0,1-3.2-2.482,5.7,5.7,0,0,1-.359-4.45c.6-1.807,3.175-2.048,4.439-2.16,1.029.2,1.21.521,1.218.532a.581.581,0,0,1-.1.519.826.826,0,0,0,.323,1.143.877.877,0,0,0,1.171-.3,2.018,2.018,0,0,0-.294-2.668A2.519,2.519,0,0,0,300.006,65.189Z" fill="#ceaf2b"/>
          <path id="Path_3925" data-name="Path 3925" d="M310.942,64.931a10.3,10.3,0,0,0-1.473.388.483.483,0,0,1-.36-.016.452.452,0,0,1,.047-.845,8.342,8.342,0,0,1,2.185-.518c.059-.133.124-.265.186-.4a8.678,8.678,0,0,0-2.511.56.83.83,0,0,0-.073,1.547.88.88,0,0,0,.659.029,10.028,10.028,0,0,1,1.194-.333C310.842,65.206,310.892,65.068,310.942,64.931Z" fill="#ceaf2b"/>
          <path id="Path_3926" data-name="Path 3926" d="M307.63,59.757a4.11,4.11,0,0,0-.323-.906,6.691,6.691,0,0,1,3.628,1.24,7.519,7.519,0,0,1,1.643,1.6l.008-.014c.036-.15.073-.3.11-.449a7.882,7.882,0,0,0-1.528-1.44,7.133,7.133,0,0,0-4.193-1.319l-.337,0,.17.283a3.731,3.731,0,0,1,.438,1.083v.006a.457.457,0,0,1-.363.541.246.246,0,0,1-.1.01.464.464,0,0,1-.456-.36c-.443-2.018-2.7-2.619-4-2.8a9.066,9.066,0,0,0-4.706.528l-.339.134.3.2a5.05,5.05,0,0,1,1.1.986.443.443,0,0,1,.091.338.451.451,0,0,1-.181.3.482.482,0,0,1-.661-.091,5.094,5.094,0,0,0-4.321-1.6c-2.187.136-4.464,1.249-5.3,2.593a3.643,3.643,0,0,0,.387,4.261.447.447,0,0,1-.044.644.479.479,0,0,1-.341.112.471.471,0,0,1-.32-.151,4.77,4.77,0,0,1-1.149-2.834l-.017-.286-.265.125a5.808,5.808,0,0,0-2.529,2.3c.081.119.161.24.24.362a5.413,5.413,0,0,1,2.2-2.193,5.148,5.148,0,0,0,1.218,2.771.867.867,0,0,0,.592.284.857.857,0,0,0,.625-.206.822.822,0,0,0,.084-1.18,3.266,3.266,0,0,1-.347-3.818c.773-1.243,2.916-2.278,4.986-2.406a4.706,4.706,0,0,1,3.986,1.456.88.88,0,0,0,1.208.161.829.829,0,0,0,.143-1.2,5.308,5.308,0,0,0-.868-.833,8.681,8.681,0,0,1,4.168-.381c1.2.165,3.285.709,3.678,2.5a.851.851,0,0,0,.837.663.665.665,0,0,0,.185-.019.842.842,0,0,0,.669-.97Z" fill="#ceaf2b"/>
        </g>
        <g id="Group_536" data-name="Group 536">
          <path id="Path_3927" data-name="Path 3927" d="M301.622,68.883a.853.853,0,0,0-.863.828c-.013,1.142-.469,1.787-1.349,1.916a2.838,2.838,0,0,1-2.9-1.612.469.469,0,0,0-.018-.053.868.868,0,0,0-1.1-.506.833.833,0,0,0-.52,1.075,4.474,4.474,0,0,0,4.175,2.8h.023a4.178,4.178,0,0,0,.592-.043,3.3,3.3,0,0,0,2.823-3.555v-.006a.851.851,0,0,0-.858-.841Zm.469.841v0a2.935,2.935,0,0,1-2.489,3.181,3.229,3.229,0,0,1-.554.038,4.08,4.08,0,0,1-3.809-2.548.453.453,0,0,1,.284-.583.479.479,0,0,1,.359.017.464.464,0,0,1,.242.258l.017.052A3.246,3.246,0,0,0,299.461,72c1.075-.157,1.676-.97,1.691-2.29a.464.464,0,0,1,.47-.451h0A.464.464,0,0,1,302.091,69.724Z" fill="#ceaf2b"/>
        </g>
        <g id="Group_537" data-name="Group 537">
          <path id="Path_3928" data-name="Path 3928" d="M286.125,68.315a3.061,3.061,0,0,0,2.34.188,1.713,1.713,0,0,0,1.175-1.936.441.441,0,0,1,.112-.332.473.473,0,0,1,.824.263l.091,0-.09.012a2.665,2.665,0,0,1-1.78,2.851,3.764,3.764,0,0,1-1.281.212,4.147,4.147,0,0,1-.7-.065q.128.213.258.425c.134.012.268.022.4.022h.079a4.1,4.1,0,0,0,1.372-.236,3.046,3.046,0,0,0,2.036-3.259.87.87,0,0,0-1.513-.47.822.822,0,0,0-.2.63,1.342,1.342,0,0,1-.912,1.526,2.639,2.639,0,0,1-2.664-.621Z" fill="#ceaf2b"/>
        </g>
        <g id="Group_538" data-name="Group 538">
          <path id="Path_3929" data-name="Path 3929" d="M312.994,60.159c.044-.133.1-.265.151-.4a9.105,9.105,0,0,0-1.2-1.026,8.265,8.265,0,0,0-5.98-1.476,7.309,7.309,0,0,0-3.461-1.307c-2.049-.279-4.881.02-6.2,1.114a7.441,7.441,0,0,0-2.794-.326c-2.627.165-5.3,1.517-6.353,3.215a4.843,4.843,0,0,0-.512,1.117,7.043,7.043,0,0,0-3.463,2.583c.086.106.172.213.256.322a6.649,6.649,0,0,1,3.43-2.576l.1-.032.028-.1a4.513,4.513,0,0,1,.5-1.12c.993-1.6,3.534-2.874,6.044-3.031a7.059,7.059,0,0,1,2.75.341l.111.037.086-.078c1.022-.928,3.641-1.408,5.968-1.091a6.922,6.922,0,0,1,3.34,1.282l.066.049.082-.013a7.858,7.858,0,0,1,5.767,1.394A8.691,8.691,0,0,1,312.994,60.159Z" fill="#ceaf2b"/>
          <path id="Path_3930" data-name="Path 3930" d="M299.177,77.132c-.172.013-.344.02-.514.021a9.517,9.517,0,0,1-2.636-.418,6.867,6.867,0,0,1-2.814-1.578l-.072-.067-.1.016-.105.015c.1.092.212.179.316.272a1.905,1.905,0,0,1,.483.675,7.275,7.275,0,0,0,2.175,1.032,9.882,9.882,0,0,0,2.746.434c.142,0,.284-.007.425-.016A1.855,1.855,0,0,1,299.177,77.132Z" fill="#ceaf2b"/>
        </g>
        <g id="Group_539" data-name="Group 539">
          <path id="Path_3931" data-name="Path 3931" d="M293.633,62.312c.9-.553,2.076-.306,3.158.681a.878.878,0,0,0,1.217-.061.82.82,0,0,0-.062-1.182c-1.958-1.791-3.984-1.617-5.222-.86a3.208,3.208,0,0,0-1.54,3.6.856.856,0,0,0,.817.585h.007a.865.865,0,0,0,.259-.039A.83.83,0,0,0,292.833,64,1.543,1.543,0,0,1,293.633,62.312ZM292.454,64.1a.454.454,0,0,1-.307.572.472.472,0,0,1-.585-.286,2.826,2.826,0,0,1,1.366-3.164,3.369,3.369,0,0,1,1.759-.485,4.429,4.429,0,0,1,2.992,1.3l0,0a.448.448,0,0,1,.035.645.479.479,0,0,1-.325.15.485.485,0,0,1-.356-.134c-1.2-1.092-2.546-1.355-3.6-.71A1.923,1.923,0,0,0,292.454,64.1Z" fill="#ceaf2b"/>
        </g>
      </g>
      <g id="Group_541" data-name="Group 541">
        <path id="Path_3932" data-name="Path 3932" d="M301.625,68.659a.666.666,0,0,0-.669.659c-.015,1.268-.541,2.017-1.524,2.165a3.006,3.006,0,0,1-3.11-1.8c0-.014-.009-.028-.014-.042a.666.666,0,0,0-1.253.449,4.3,4.3,0,0,0,3.992,2.754,3.7,3.7,0,0,0,.585-.043c1.641-.248,2.634-1.544,2.655-3.468v0A.666.666,0,0,0,301.625,68.659Z"/>
        <path id="Path_3933" data-name="Path 3933" d="M308,63.737a1.781,1.781,0,0,0,.8-1.219v.011a.666.666,0,0,0-1.314-.215.466.466,0,0,1-.228.325c-.253.167-1.076.5-3.238-.021-2.145-.52-1.715-3.16-1.7-3.272a.666.666,0,0,0-1.312-.232c-.246,1.374,0,4.146,2.694,4.8.153.037.3.066.447.1a1.486,1.486,0,0,1,.592,1.335,1.4,1.4,0,0,1-1.093.993h0a.666.666,0,0,0,.386,1.275,2.682,2.682,0,0,0,2.018-2.034,2.5,2.5,0,0,0-.145-1.356H306A3.54,3.54,0,0,0,308,63.737Z"/>
        <path id="Path_3934" data-name="Path 3934" d="M284.229,64.3a5.676,5.676,0,0,1,2.413-2.238,5.223,5.223,0,0,0,1.194,3.032.667.667,0,0,0,1-.878,3.629,3.629,0,0,1-.365-4.158c.8-1.328,3.013-2.436,5.141-2.572a4.822,4.822,0,0,1,4.155,1.575.666.666,0,1,0,1.061-.805l-.018-.023a5.252,5.252,0,0,0-1.122-1.035,8.636,8.636,0,0,1,4.6-.532c1.255.176,3.425.765,3.843,2.726a.666.666,0,0,0,1.3-.277v0a4.079,4.079,0,0,0-.46-1.176,6.713,6.713,0,0,1,4.073,1.319,7.853,7.853,0,0,1,1.406,1.324q.264-.691.5-1.414a9.119,9.119,0,0,0-1.131-.988,7.835,7.835,0,0,0-5.914-1.47,6.993,6.993,0,0,0-3.436-1.359c-2.221-.311-4.974.1-6.123,1.175a7.1,7.1,0,0,0-2.828-.361c-2.568.165-5.174,1.518-6.2,3.215a4.907,4.907,0,0,0-.52,1.2,6.855,6.855,0,0,0-3.242,2.325Q283.878,63.6,284.229,64.3Z"/>
        <path id="Path_3935" data-name="Path 3935" d="M309.083,63.726a.666.666,0,0,0,.452,1.253,9.963,9.963,0,0,1,1.01-.3q.406-.728.785-1.5A8.321,8.321,0,0,0,309.083,63.726Z"/>
        <path id="Path_3936" data-name="Path 3936" d="M290.772,65.993a.666.666,0,0,0-1.328.1,1.589,1.589,0,0,1-1.043,1.793,2.791,2.791,0,0,1-2.159-.17c.378.554.778,1.1,1.207,1.646.023,0,.045,0,.068,0a3.8,3.8,0,0,0,1.347-.231,2.929,2.929,0,0,0,1.908-3.145Z"/>
        <path id="Path_3937" data-name="Path 3937" d="M293.529,61.532c.984-.619,2.245-.357,3.372.7l.021.02a.666.666,0,0,0,.892-.989c-1.877-1.768-3.811-1.6-4.991-.86a3.126,3.126,0,0,0-1.452,3.472.668.668,0,0,0,.632.465.651.651,0,0,0,.205-.032.665.665,0,0,0,.433-.835A1.788,1.788,0,0,1,293.529,61.532Z"/>
        <path id="Path_3938" data-name="Path 3938" d="M308.16,68.333l-.91.885c.094-.032.19-.059.287-.082C307.747,68.875,307.954,68.606,308.16,68.333Z"/>
        <path id="Path_3939" data-name="Path 3939" d="M296.145,76.783a9.473,9.473,0,0,0,2.031.364,32.218,32.218,0,0,0,6.792-5.169c.037-.111.074-.221.107-.336a3.28,3.28,0,0,1,.131-.436L301,75.29a5.961,5.961,0,0,1-4.646.17,5.379,5.379,0,0,1-3.321-2.656,6.257,6.257,0,0,1-.371-4.73c.633-1.958,3.189-2.229,4.637-2.361,1.052.205,1.329.547,1.395.689a.791.791,0,0,1-.113.688.666.666,0,0,0,1.158.66,2.052,2.052,0,0,0,.161-1.914,1.989,1.989,0,0,0-.6-.729,2.354,2.354,0,0,0,.532-.55,2.94,2.94,0,0,0,.337-2.33.666.666,0,0,0-1.3.281,1.7,1.7,0,0,1-.144,1.307,1.187,1.187,0,0,1-.795.486c-.156.03-.381.048-.653.073-1.611.146-4.962.449-5.877,3.287a7.607,7.607,0,0,0,.458,5.758c.079.15.168.293.256.435l-.217.019A31.71,31.71,0,0,0,296.145,76.783Z"/>
        <path id="Path_3940" data-name="Path 3940" d="M305.206,71.206l2.044-1.988A3.294,3.294,0,0,0,305.206,71.206Z"/>
      </g>
      <g id="Group_544" data-name="Group 544">
        <g id="Group_542" data-name="Group 542">
          <rect id="Rectangle_598" data-name="Rectangle 598" width="0.904" height="5.002" rx="0.452" transform="translate(307.406 52.513) rotate(-162.995)" fill="#f1cc30"/>
          <path id="Path_3941" data-name="Path 3941" d="M307.138,52.575a.562.562,0,0,1-.166-.025l-.092-.028a.568.568,0,0,1-.376-.707l1.227-4.011a.566.566,0,0,1,.708-.376l.091.027a.569.569,0,0,1,.377.708l-1.227,4.011a.566.566,0,0,1-.542.4Zm-.162-.364.091.028a.243.243,0,0,0,.3-.16l1.227-4.011a.242.242,0,0,0-.16-.3l-.092-.027a.237.237,0,0,0-.184.018.239.239,0,0,0-.118.141l-1.227,4.012a.242.242,0,0,0,.161.3Z" fill="#f1cc30"/>
        </g>
        <g id="Group_543" data-name="Group 543">
          <path id="Path_3942" data-name="Path 3942" d="M307.106,52.6a.627.627,0,0,1-.19-.029.648.648,0,0,1-.43-.809l1.2-3.919a.649.649,0,1,1,1.241.379l-1.2,3.919A.651.651,0,0,1,307.106,52.6Zm1.2-4.823a.254.254,0,0,0-.245.181l-1.2,3.918a.255.255,0,0,0,.169.32.258.258,0,0,0,.32-.17l1.2-3.919a.254.254,0,0,0-.169-.319A.244.244,0,0,0,308.3,47.774Z" fill="#f1cc30"/>
          <path id="Path_3943" data-name="Path 3943" d="M307.106,52.759a.831.831,0,0,1-.238-.035.813.813,0,0,1-.538-1.013l1.2-3.919a.811.811,0,0,1,1.552.474l-1.2,3.919A.817.817,0,0,1,307.106,52.759Zm1.2-5.215a.488.488,0,0,0-.228.057.481.481,0,0,0-.237.286l-1.2,3.919a.487.487,0,0,0,.323.607.5.5,0,0,0,.608-.323l1.2-3.919a.486.486,0,0,0-.323-.606A.457.457,0,0,0,308.3,47.544Zm-1.2,4.823a.4.4,0,0,1-.122-.019.418.418,0,0,1-.278-.523l1.2-3.918a.421.421,0,0,1,.52-.278.419.419,0,0,1,.28.523l-1.2,3.919A.418.418,0,0,1,307.106,52.367Zm1.2-4.431a.094.094,0,0,0-.089.065l-1.2,3.92a.092.092,0,0,0,.007.071.1.1,0,0,0,.055.046.1.1,0,0,0,.116-.062l1.2-3.919a.095.095,0,0,0-.062-.117Z" fill="#f1cc30"/>
        </g>
      </g>
      <g id="Group_547" data-name="Group 547">
        <g id="Group_545" data-name="Group 545">
          <rect id="Rectangle_599" data-name="Rectangle 599" width="0.904" height="5.002" rx="0.452" transform="translate(287.448 47.723) rotate(-21.037)" fill="#f1cc30"/>
          <path id="Path_3944" data-name="Path 3944" d="M289.476,52.436a.568.568,0,0,1-.529-.363l-1.506-3.915a.567.567,0,0,1,.325-.732l.09-.035a.568.568,0,0,1,.733.325l1.505,3.915a.567.567,0,0,1-.325.733l-.091.034A.561.561,0,0,1,289.476,52.436Zm-1.417-4.757a.238.238,0,0,0-.086.016l-.09.034a.242.242,0,0,0-.138.312l1.505,3.915a.243.243,0,0,0,.312.139l.09-.035a.242.242,0,0,0,.139-.312l-1.5-3.915A.245.245,0,0,0,288.059,47.679Z" fill="#f1cc30"/>
        </g>
        <g id="Group_546" data-name="Group 546">
          <path id="Path_3945" data-name="Path 3945" d="M289.5,52.456a.654.654,0,0,1-.606-.416l-1.471-3.825a.649.649,0,0,1,1.211-.466l1.471,3.825a.651.651,0,0,1-.373.839h0A.662.662,0,0,1,289.5,52.456Zm-1.473-4.729a.244.244,0,0,0-.091.017.252.252,0,0,0-.141.135.249.249,0,0,0-.005.195l1.471,3.825a.249.249,0,0,0,.135.141.255.255,0,0,0,.342-.325l-1.471-3.825a.257.257,0,0,0-.24-.163Z" fill="#f1cc30"/>
          <path id="Path_3946" data-name="Path 3946" d="M289.5,52.618a.818.818,0,0,1-.33-.07.8.8,0,0,1-.428-.45l-1.471-3.824a.812.812,0,0,1,1.515-.583l1.47,3.825a.812.812,0,0,1-.465,1.048A.8.8,0,0,1,289.5,52.618ZM288.032,47.5a.47.47,0,0,0-.173.033.475.475,0,0,0-.27.256.485.485,0,0,0-.01.372l1.471,3.824a.481.481,0,0,0,.256.27.494.494,0,0,0,.372.01.487.487,0,0,0,.279-.628l-1.471-3.825a.483.483,0,0,0-.257-.27A.5.5,0,0,0,288.032,47.5Zm1.472,4.73a.42.42,0,0,1-.17-.037.409.409,0,0,1-.221-.232l-1.471-3.825a.418.418,0,0,1,.781-.3l1.471,3.825a.419.419,0,0,1-.24.541A.437.437,0,0,1,289.5,52.226Zm-1.473-4.337A.09.09,0,0,0,288,47.9a.087.087,0,0,0-.049.049.092.092,0,0,0,0,.071l1.471,3.825a.09.09,0,0,0,.05.051.092.092,0,0,0,.124-.118l-1.47-3.825a.093.093,0,0,0-.05-.051Z" fill="#f1cc30"/>
        </g>
      </g>
      <g id="Group_550" data-name="Group 550">
        <g id="Group_548" data-name="Group 548">
          <path id="Rectangle_600" data-name="Rectangle 600" d="M.468,0h0A.467.467,0,0,1,.935.467V6.984a.468.468,0,0,1-.468.468h0A.467.467,0,0,1,0,6.984V.468A.468.468,0,0,1,.468,0Z" transform="matrix(0.998, 0.057, -0.057, 0.998, 298.087, 44.112)" fill="#f1cc30"/>
          <path id="Path_3947" data-name="Path 3947" d="M298.2,51.745h-.033l-.1-.006a.581.581,0,0,1-.546-.613l.381-6.6a.578.578,0,0,1,.612-.546l.1.006a.583.583,0,0,1,.546.612l-.381,6.606A.581.581,0,0,1,298.2,51.745Zm-.014-.326a.258.258,0,0,0,.269-.24l.38-6.6a.257.257,0,0,0-.24-.27l-.1-.005a.258.258,0,0,0-.269.24l-.38,6.6a.255.255,0,0,0,.24.269Z" fill="#f1cc30"/>
        </g>
        <g id="Group_549" data-name="Group 549">
          <path id="Path_3948" data-name="Path 3948" d="M298.152,51.776l-.038,0a.665.665,0,0,1-.625-.7l.375-6.506a.664.664,0,1,1,1.326.076l-.375,6.506A.666.666,0,0,1,298.152,51.776Zm.374-7.441a.273.273,0,0,0-.27.255l-.375,6.506a.271.271,0,0,0,.542.031l.375-6.5a.274.274,0,0,0-.256-.287Z" fill="#f1cc30"/>
          <path id="Path_3949" data-name="Path 3949" d="M298.152,51.938H298.1a.828.828,0,0,1-.776-.872l.375-6.506a.826.826,0,0,1,.873-.778.827.827,0,0,1,.777.872l-.375,6.506A.826.826,0,0,1,298.152,51.938Zm.375-7.833a.5.5,0,0,0-.5.472l-.375,6.506a.5.5,0,0,0,.473.529l.028.163v-.162a.5.5,0,0,0,.5-.472l.374-6.506a.5.5,0,0,0-.471-.529Zm-.381,7.44h-.015a.436.436,0,0,1-.412-.458l.375-6.506a.433.433,0,0,1,.432-.409h.015a.435.435,0,0,1,.419.458l-.375,6.505A.435.435,0,0,1,298.146,51.545Zm.38-7.21V44.5a.105.105,0,0,0-.072.028.109.109,0,0,0-.036.074l-.374,6.505a.108.108,0,0,0,.1.115h0a.109.109,0,0,0,.112-.1l.374-6.505a.113.113,0,0,0-.027-.078.105.105,0,0,0-.075-.036Z" fill="#f1cc30"/>
        </g>
      </g>
      <g id="Group_551" data-name="Group 551">
        <path id="Path_3950" data-name="Path 3950" d="M315.212,44.093l-17.109-9.4a.893.893,0,0,0-.606-.086h0a.9.9,0,0,0-.222.082l-17.2,9.225a.874.874,0,0,0-.473.788c-.049,9.962,1.774,17.552,5.573,23.206,3.341,4.97,7.813,7.864,11.758,10.418l.069.045a.882.882,0,0,0,.471.135.893.893,0,0,0,.47-.133l.063-.04c3.972-2.515,8.472-5.365,11.863-10.3,3.856-5.615,5.754-13.187,5.8-23.14A.877.877,0,0,0,315.212,44.093Zm-1.323,1.292c-.111,9.363-1.9,16.445-5.475,21.649-3.127,4.553-7.255,7.217-10.933,9.547-3.655-2.367-7.758-5.072-10.838-9.656-3.521-5.238-5.242-12.339-5.26-21.7l16.3-8.741Z"/>
      </g>
    </g>
    <g id="Group_561" data-name="Group 561">
      <g id="Group_553" data-name="Group 553">
        <path id="Path_3951" data-name="Path 3951" d="M249.9,86.231a2.271,2.271,0,1,1-2.272,2.3A2.271,2.271,0,0,1,249.9,86.231Zm-1.829,20.821V92.991h3.685v16.082Z" fill="#f1cc30"/>
      </g>
      <g id="Group_554" data-name="Group 554">
        <path id="Path_3952" data-name="Path 3952" d="M255.684,111.272V92.966h3.574v1.663a4.764,4.764,0,0,1,4.183-1.967c3.989,0,6.289,3.047,6.289,7.092,0,4.128-2.577,7.176-6.427,7.176a4.791,4.791,0,0,1-3.934-1.663v8.025Zm7.037-15.313c-1.884,0-3.408,1.412-3.408,3.823s1.524,3.851,3.408,3.851,3.38-1.413,3.38-3.851C266.1,97.371,264.605,95.959,262.721,95.959Z" fill="#f1cc30"/>
      </g>
      <g id="Group_555" data-name="Group 555">
        <path id="Path_3953" data-name="Path 3953" d="M280.948,96.624a5.548,5.548,0,0,0-1.108-.111c-1.884,0-3.518.914-3.518,3.851V106.6h-3.685V92.966h3.574v2.023a4.054,4.054,0,0,1,3.878-2.133,8.308,8.308,0,0,1,.859.055Z" fill="#4872e0"/>
      </g>
      <g id="Group_556" data-name="Group 556">
        <path id="Path_3954" data-name="Path 3954" d="M296.683,99.782a7.148,7.148,0,1,1-7.147-7.231A7,7,0,0,1,296.683,99.782Zm-3.685,0c0-2.576-1.662-3.879-3.462-3.879s-3.463,1.3-3.463,3.879c0,2.549,1.662,3.879,3.463,3.879S293,102.358,293,99.782Z" fill="#4872e0"/>
      </g>
      <g id="Group_557" data-name="Group 557">
        <path id="Path_3955" data-name="Path 3955" d="M304.079,92.966h2.743v3.27h-2.743v5.707c0,1.191.554,1.579,1.607,1.579a5.31,5.31,0,0,0,1.136-.111v3.047a5.458,5.458,0,0,1-2.078.333c-2.66,0-4.322-1.579-4.322-4.211V96.236h-2.466v-3.27h.693a1.963,1.963,0,0,0,2.105-2.16V88.894h3.325Z" fill="#4872e0"/>
      </g>
      <g id="Group_558" data-name="Group 558">
        <path id="Path_3956" data-name="Path 3956" d="M344.91,92.966h2.743v3.27H344.91v5.707c0,1.191.554,1.579,1.607,1.579a5.31,5.31,0,0,0,1.136-.111v3.047a5.458,5.458,0,0,1-2.078.333c-2.66,0-4.322-1.579-4.322-4.211V96.236h-2.465v-3.27h.692a1.962,1.962,0,0,0,2.1-2.16V88.894h3.325Z" fill="#4872e0"/>
      </g>
      <g id="Group_559" data-name="Group 559">
        <path id="Path_3957" data-name="Path 3957" d="M322.03,102.691a6.138,6.138,0,0,1-6.206,4.322,7.242,7.242,0,0,1-.332-14.462c4.211,0,6.732,2.687,6.732,7.064,0,.527-.055,1.081-.055,1.137h-9.752a3.32,3.32,0,0,0,3.435,3.1,3.009,3.009,0,0,0,3.1-2.079ZM318.6,98.23a2.742,2.742,0,0,0-3.048-2.687A2.949,2.949,0,0,0,312.5,98.23Z" fill="#4872e0"/>
      </g>
      <g id="Group_560" data-name="Group 560">
        <path id="Path_3958" data-name="Path 3958" d="M327.791,99.782a3.51,3.51,0,0,0,3.491,3.851,3.12,3.12,0,0,0,3.13-2.3l3.241,1.081a6.328,6.328,0,0,1-6.371,4.6,7.053,7.053,0,0,1-7.176-7.231,6.979,6.979,0,0,1,7.065-7.231,6.24,6.24,0,0,1,6.4,4.6l-3.3,1.108a2.971,2.971,0,0,0-3.02-2.3C329.37,95.959,327.791,97.316,327.791,99.782Z" fill="#4872e0"/>
      </g>
    </g>
  </g>
</svg>
