<svg id="Group_42" data-name="Group 42" xmlns="http://www.w3.org/2000/svg" width="121.341" height="29.819" viewBox="0 0 121.341 29.819">
  <g id="Group_1" data-name="Group 1" transform="translate(0.606 0.922)">
    <path id="Path_1" data-name="Path 1" d="M116.122,95.416s9.98-8.161,10.326-14.063.282-7.676.282-7.676-10.379-6.309-10.825-6.25S103.859,73.4,103.859,73.4,102.109,89.922,116.122,95.416Z" transform="translate(-103.789 -67.427)" fill="#fff"/>
  </g>
  <g id="Group_4" data-name="Group 4" transform="translate(0.266 0.266)">
    <g id="Group_3" data-name="Group 3" transform="translate(0 0)">
      <g id="Group_2" data-name="Group 2">
        <path id="Path_2" data-name="Path 2" d="M114.577,65.207a.336.336,0,0,0-.083.031L102.817,71.5a.334.334,0,0,0-.178.3c-.037,7.485,1.489,12.258,3.739,15.6s5.207,5.251,7.951,7.027a.333.333,0,0,0,.354,0c2.761-1.748,5.737-3.623,8.02-6.948s3.856-8.081,3.893-15.567a.333.333,0,0,0-.175-.3l-11.614-6.38a.332.332,0,0,0-.229-.032Zm.069.707,11.272,6.191c-.064,7.274-1.59,11.837-3.766,15.006-2.149,3.13-4.937,4.933-7.644,6.648-2.69-1.742-5.46-3.572-7.578-6.723-2.144-3.19-3.625-7.768-3.616-15.043Z" transform="translate(-102.638 -65.2)"/>
      </g>
    </g>
  </g>
  <g id="Group_5" data-name="Group 5" transform="translate(0.666 0.92)">
    <path id="Path_3" data-name="Path 3" d="M127,73.669s-11.022-6.309-11.468-6.25-11.4,5.978-11.4,5.978-2.18,15.246,11.339,22.245A22.137,22.137,0,0,0,127,73.669Z" transform="translate(-103.996 -67.419)" fill="#0f55a8"/>
  </g>
  <g id="Group_6" data-name="Group 6" transform="translate(2.473 0.92)">
    <path id="Path_4" data-name="Path 4" d="M129.433,72.849s-9.2-5.489-9.573-5.43-9.68,5.43-9.68,5.43-1.313,13.7,9.626,22.793C119.806,95.642,130.552,88.778,129.433,72.849Z" transform="translate(-110.131 -67.418)" fill="#2673e5"/>
  </g>
  <g id="Group_7" data-name="Group 7" transform="translate(2.822 14.785)">
    <path id="Path_5" data-name="Path 5" d="M120.805,129.225l5.923-4.762,2.647-3.838,1.339-3.871-1.97-1.7-2.364-.181-3.263-.362-3.157.2-1.942.69-3.3.9-1.22,1.166-1.227,1.61-.953.122,5.236,7.645Z" transform="translate(-111.318 -114.507)" fill="#ffce00"/>
  </g>
  <g id="Group_19" data-name="Group 19" transform="translate(2.433 14.438)">
    <g id="Group_8" data-name="Group 8" transform="translate(8.031 8.974)">
      <path id="Path_6" data-name="Path 6" d="M141.76,143.808a.446.446,0,0,0-.454.434c-.01.837-.367,1.33-1.034,1.428a2.051,2.051,0,0,1-2.112-1.188c0-.009-.006-.019-.009-.028a.456.456,0,0,0-.578-.265.436.436,0,0,0-.273.562,2.921,2.921,0,0,0,2.711,1.816,2.589,2.589,0,0,0,.4-.028,2.114,2.114,0,0,0,1.8-2.287v0A.446.446,0,0,0,141.76,143.808Z" transform="translate(-137.273 -143.808)" fill="#dbb205"/>
    </g>
    <g id="Group_9" data-name="Group 9" transform="translate(1.868 6.809)">
      <path id="Path_7" data-name="Path 7" d="M117.027,139.06a2.893,2.893,0,0,0,.385.026,2.659,2.659,0,0,0,.914-.152,1.928,1.928,0,0,0,1.3-2.074v0a.448.448,0,0,0-.485-.4.444.444,0,0,0-.417.471,1.045,1.045,0,0,1-.708,1.182,1.945,1.945,0,0,1-1.673-.23C116.565,138.278,116.792,138.674,117.027,139.06Z" transform="translate(-116.34 -136.456)" fill="#dbb205"/>
    </g>
    <g id="Group_10" data-name="Group 10" transform="translate(5.491 3.181)">
      <path id="Path_8" data-name="Path 8" d="M129.7,124.482a2.038,2.038,0,0,0-.986,2.29.456.456,0,0,0,.568.286.437.437,0,0,0,.294-.551,1.166,1.166,0,0,1,.6-1.281,1.892,1.892,0,0,1,2.29.463l.014.013a.461.461,0,0,0,.639-.032.431.431,0,0,0-.033-.62A2.77,2.77,0,0,0,129.7,124.482Z" transform="translate(-128.646 -124.132)" fill="#dbb205"/>
    </g>
    <g id="Group_11" data-name="Group 11" transform="translate(12.055 2.316)">
      <path id="Path_9" data-name="Path 9" d="M155.729,124.608a1.177,1.177,0,0,0,.547-.8v.007a.441.441,0,0,0-.366-.495.451.451,0,0,0-.526.353.308.308,0,0,1-.155.214c-.172.11-.73.331-2.2-.014s-1.164-2.084-1.151-2.158a.44.44,0,0,0-.366-.509.451.451,0,0,0-.524.356,2.608,2.608,0,0,0,1.829,3.164c.1.025.2.044.3.064a.968.968,0,0,1,.4.88.941.941,0,0,1-.743.655h0a.437.437,0,0,0-.3.548.455.455,0,0,0,.564.293,1.8,1.8,0,0,0,1.371-1.341,1.613,1.613,0,0,0-.1-.895h.06A2.462,2.462,0,0,0,155.729,124.608Z" transform="translate(-150.939 -121.196)" fill="#dbb205"/>
    </g>
    <g id="Group_12" data-name="Group 12" transform="translate(0.087 0.128)">
      <path id="Path_10" data-name="Path 10" d="M170.589,131.516a5.778,5.778,0,0,0-1.6.366.436.436,0,0,0-.272.562.456.456,0,0,0,.579.264,6.877,6.877,0,0,1,.9-.244C170.313,132.143,170.446,131.828,170.589,131.516Z" transform="translate(-151.498 -126.289)" fill="#dbb205"/>
      <path id="Path_11" data-name="Path 11" d="M134.092,137.679a.793.793,0,0,1-.012-.211,4.833,4.833,0,0,1-2.359-.168,3.639,3.639,0,0,1-2.255-1.751,4.018,4.018,0,0,1-.251-3.12c.429-1.291,2.165-1.47,3.148-1.557.714.135.9.361.947.454a.51.51,0,0,1-.077.454.433.433,0,0,0,.169.6.46.46,0,0,0,.617-.164,1.249,1.249,0,0,0-.295-1.743,1.569,1.569,0,0,0,.361-.363,1.89,1.89,0,0,0,.229-1.536.452.452,0,0,0-.538-.335.439.439,0,0,0-.346.52,1.092,1.092,0,0,1-.1.862.812.812,0,0,1-.54.321c-.106.019-.259.032-.444.048-1.093.1-3.369.3-3.99,2.167a4.888,4.888,0,0,0,.311,3.8c.053.1.114.193.174.287-.072.007-.148.013-.223.019.336.275.668.555.993.846a1.346,1.346,0,0,1,.125.136,4.791,4.791,0,0,0,1.72.9,6.609,6.609,0,0,0,1.824.289c.105,0,.21-.006.315-.013A1.26,1.26,0,0,1,134.092,137.679Z" transform="translate(-122.866 -123.969)" fill="#dbb205"/>
      <path id="Path_12" data-name="Path 12" d="M126.671,116.313a2.644,2.644,0,0,0-.313-.776,4.65,4.65,0,0,1,2.765.87,5.228,5.228,0,0,1,1.078,1.031,8.692,8.692,0,0,1,.292-1.014,5.982,5.982,0,0,0-.842-.728,5.439,5.439,0,0,0-4.015-.969,4.828,4.828,0,0,0-2.333-.9c-1.508-.205-3.377.066-4.157.775a4.951,4.951,0,0,0-1.92-.239,5.615,5.615,0,0,0-4.208,2.121,3.179,3.179,0,0,0-.353.792,4.646,4.646,0,0,0-2.373,1.763q.295.374.565.783a3.81,3.81,0,0,1,1.694-1.567,3.387,3.387,0,0,0,.811,2,.462.462,0,0,0,.639.041.431.431,0,0,0,.042-.62,2.339,2.339,0,0,1-.247-2.743,4.733,4.733,0,0,1,3.49-1.7,3.331,3.331,0,0,1,2.821,1.039.461.461,0,0,0,.633.085.431.431,0,0,0,.087-.615l-.013-.016a3.522,3.522,0,0,0-.761-.683,6.019,6.019,0,0,1,3.124-.351c.852.117,2.325.5,2.609,1.8a.449.449,0,0,0,.439.347.463.463,0,0,0,.1-.009.44.44,0,0,0,.349-.521Z" transform="translate(-110.293 -113.764)" fill="#dbb205"/>
    </g>
    <g id="Group_13" data-name="Group 13" transform="translate(11.922 2.187)">
      <path id="Path_13" data-name="Path 13" d="M155.481,124.407a1.305,1.305,0,0,0,.606-.888h0a.569.569,0,0,0-.474-.641.6.6,0,0,0-.438.092.565.565,0,0,0-.243.367.184.184,0,0,1-.1.128c-.123.079-.638.31-2.093-.032-1.335-.314-1.063-1.941-1.051-2.009a.552.552,0,0,0-.1-.425.592.592,0,0,0-1.056.226,2.734,2.734,0,0,0,1.929,3.313c.089.021.174.038.26.055l.018,0a.842.842,0,0,1,.332.724.811.811,0,0,1-.653.567.567.567,0,0,0-.391.709.586.586,0,0,0,.559.405.576.576,0,0,0,.163-.024,1.939,1.939,0,0,0,1.472-1.446,1.736,1.736,0,0,0-.043-.783h.009A2.587,2.587,0,0,0,155.481,124.407Zm-1.425.08-.259,0,.074.179a1.476,1.476,0,0,1,.092.818,1.676,1.676,0,0,1-1.279,1.246.321.321,0,0,1-.4-.206.308.308,0,0,1,.2-.383,1.068,1.068,0,0,0,.852-.77,1.1,1.1,0,0,0-.456-1l-.1-.033c-.082-.016-.165-.033-.251-.054a2.484,2.484,0,0,1-1.729-3.015.317.317,0,0,1,.314-.256.329.329,0,0,1,.056,0,.318.318,0,0,1,.206.128.3.3,0,0,1,.052.232c-.014.079-.323,1.935,1.251,2.306,1.462.344,2.071.145,2.3,0a.436.436,0,0,0,.221-.3.306.306,0,0,1,.132-.2.326.326,0,0,1,.238-.05.31.31,0,0,1,.259.34h0a1.046,1.046,0,0,1-.483.714A2.308,2.308,0,0,1,154.057,124.487Z" transform="translate(-150.487 -120.756)" fill="#dbb205"/>
    </g>
    <g id="Group_14" data-name="Group 14" transform="translate(0.571 0.865)">
      <path id="Path_14" data-name="Path 14" d="M133.874,129.867a2.019,2.019,0,0,0,.246-1.632.586.586,0,0,0-.7-.434.571.571,0,0,0-.445.684.97.97,0,0,1-.079.75.685.685,0,0,1-.456.269c-.09.017-.226.028-.383.042l-.049,0c-1.122.1-3.456.3-4.1,2.257a4.985,4.985,0,0,0,.32,3.9c.021.039.044.079.067.117-.049,0-.1.006-.147.009.1.079.2.155.3.236l.09-.008.2-.032-.113-.175c-.056-.088-.113-.176-.162-.267a4.734,4.734,0,0,1-.3-3.7c.594-1.789,2.81-1.985,3.875-2.078l.048,0c.164-.014.306-.027.4-.045a.954.954,0,0,0,.637-.386,1.221,1.221,0,0,0,.112-.952.31.31,0,0,1,.244-.367.32.32,0,0,1,.381.243,1.766,1.766,0,0,1-.21,1.428,1.424,1.424,0,0,1-.331.333l-.142.1.142.1a1.122,1.122,0,0,1,.259,1.576.324.324,0,0,1-.435.115.3.3,0,0,1-.127-.411.645.645,0,0,0,.089-.584c-.065-.135-.287-.384-1.043-.527l-.019,0-.019,0c-.908.081-2.8.248-3.262,1.647a4.12,4.12,0,0,0,.261,3.22,3.784,3.784,0,0,0,2.334,1.814,4.989,4.989,0,0,0,2.4.176.714.714,0,0,1,.028-.269,4.658,4.658,0,0,1-2.35-.155,3.518,3.518,0,0,1-2.171-1.685,3.869,3.869,0,0,1-.243-3.022c.408-1.226,2.156-1.39,3.014-1.466.7.135.822.354.827.361a.4.4,0,0,1-.065.352.561.561,0,0,0,.219.776.6.6,0,0,0,.8-.206,1.37,1.37,0,0,0-.2-1.811A1.719,1.719,0,0,0,133.874,129.867Z" transform="translate(-123.025 -124.396)" fill="#dbb205"/>
      <path id="Path_15" data-name="Path 15" d="M169.937,132a7.027,7.027,0,0,0-1,.264.327.327,0,0,1-.244-.011.307.307,0,0,1,.032-.574,5.624,5.624,0,0,1,1.484-.352c.04-.091.084-.18.126-.27a5.882,5.882,0,0,0-1.7.38.565.565,0,0,0-.352.728.572.572,0,0,0,.3.322.6.6,0,0,0,.448.02,6.819,6.819,0,0,1,.81-.226C169.869,132.184,169.9,132.09,169.937,132Z" transform="translate(-151.662 -126.7)" fill="#dbb205"/>
      <path id="Path_16" data-name="Path 16" d="M127.96,118.052a2.754,2.754,0,0,0-.219-.615,4.538,4.538,0,0,1,2.464.842,5.1,5.1,0,0,1,1.115,1.083l.006-.009c.024-.1.05-.2.074-.306a5.33,5.33,0,0,0-1.037-.977,4.842,4.842,0,0,0-2.846-.9l-.229,0,.115.192a2.516,2.516,0,0,1,.3.735v0a.311.311,0,0,1-.246.367.168.168,0,0,1-.068.006.314.314,0,0,1-.309-.245c-.3-1.37-1.834-1.778-2.719-1.9a6.159,6.159,0,0,0-3.2.359l-.23.091.2.136a3.4,3.4,0,0,1,.743.67.3.3,0,0,1,.062.229.3.3,0,0,1-.123.2.326.326,0,0,1-.449-.062,3.457,3.457,0,0,0-2.934-1.088,4.871,4.871,0,0,0-3.6,1.76,2.472,2.472,0,0,0,.262,2.893.3.3,0,0,1-.03.438.329.329,0,0,1-.232.076.318.318,0,0,1-.217-.1,3.239,3.239,0,0,1-.781-1.925l-.011-.194-.18.085a3.947,3.947,0,0,0-1.717,1.564q.083.122.163.246a3.67,3.67,0,0,1,1.5-1.488,3.5,3.5,0,0,0,.827,1.881.6.6,0,0,0,.827.054.558.558,0,0,0,.057-.8,2.217,2.217,0,0,1-.235-2.592,4.587,4.587,0,0,1,3.385-1.634,3.2,3.2,0,0,1,2.706.988.6.6,0,0,0,.82.109.563.563,0,0,0,.1-.815,3.632,3.632,0,0,0-.589-.565,5.89,5.89,0,0,1,2.829-.259c.818.112,2.23.481,2.5,1.7a.577.577,0,0,0,.568.45.465.465,0,0,0,.126-.012.572.572,0,0,0,.454-.659Z" transform="translate(-111.935 -116.269)" fill="#dbb205"/>
    </g>
    <g id="Group_15" data-name="Group 15" transform="translate(7.899 8.845)">
      <path id="Path_17" data-name="Path 17" d="M141.44,143.368a.579.579,0,0,0-.586.562c-.009.775-.319,1.213-.916,1.3a1.927,1.927,0,0,1-1.968-1.095c0-.012-.008-.024-.012-.036a.591.591,0,0,0-.748-.344.566.566,0,0,0-.353.73,3.037,3.037,0,0,0,2.834,1.9h.016a2.784,2.784,0,0,0,.4-.029,2.237,2.237,0,0,0,1.916-2.414v0a.578.578,0,0,0-.583-.571Zm.319.571v0a1.992,1.992,0,0,1-1.69,2.16,2.243,2.243,0,0,1-.376.027,2.77,2.77,0,0,1-2.586-1.73.307.307,0,0,1,.193-.4.321.321,0,0,1,.107-.018.328.328,0,0,1,.136.03.312.312,0,0,1,.164.176l.012.035a2.2,2.2,0,0,0,2.254,1.265c.73-.107,1.137-.659,1.148-1.555a.315.315,0,0,1,.319-.307h0A.315.315,0,0,1,141.759,143.939Z" transform="translate(-136.822 -143.368)" fill="#dbb205"/>
    </g>
    <g id="Group_16" data-name="Group 16" transform="translate(1.689 6.68)">
      <path id="Path_18" data-name="Path 18" d="M116.04,137.8a2.077,2.077,0,0,0,1.589.128,1.162,1.162,0,0,0,.8-1.314.3.3,0,0,1,.076-.226.322.322,0,0,1,.56.178l.062,0-.061.008a1.809,1.809,0,0,1-1.209,1.935,2.548,2.548,0,0,1-.87.144,2.78,2.78,0,0,1-.474-.044c.058.1.116.193.175.288.091.009.182.015.275.015h.054a2.782,2.782,0,0,0,.931-.16,2.069,2.069,0,0,0,1.382-2.213.591.591,0,0,0-1.027-.319.559.559,0,0,0-.138.428.911.911,0,0,1-.619,1.036,1.792,1.792,0,0,1-1.809-.422Z" transform="translate(-115.734 -136.017)" fill="#dbb205"/>
    </g>
    <g id="Group_17" data-name="Group 17">
      <path id="Path_19" data-name="Path 19" d="M130.235,116.251c.03-.09.066-.18.1-.269a6.157,6.157,0,0,0-.814-.7,5.611,5.611,0,0,0-4.06-1,4.964,4.964,0,0,0-2.349-.888,6.227,6.227,0,0,0-4.207.756,5.061,5.061,0,0,0-1.9-.221,5.758,5.758,0,0,0-4.313,2.183,3.315,3.315,0,0,0-.347.758A4.786,4.786,0,0,0,110,118.627c.059.072.117.144.174.218A4.515,4.515,0,0,1,112.5,117.1l.067-.022.019-.066a3.048,3.048,0,0,1,.339-.76,5.477,5.477,0,0,1,4.1-2.058,4.8,4.8,0,0,1,1.867.232l.076.025.058-.053a5.8,5.8,0,0,1,4.052-.741,4.693,4.693,0,0,1,2.267.87l.045.033.056-.009a5.336,5.336,0,0,1,3.916.946A5.936,5.936,0,0,1,130.235,116.251Z" transform="translate(-109.997 -113.33)" fill="#dbb205"/>
      <path id="Path_20" data-name="Path 20" d="M136.719,159.067c-.117.009-.233.014-.349.014a6.46,6.46,0,0,1-1.79-.284,4.669,4.669,0,0,1-1.911-1.072l-.048-.045-.066.011-.072.01c.071.062.144.122.215.185a1.29,1.29,0,0,1,.328.458,4.954,4.954,0,0,0,1.477.7,6.741,6.741,0,0,0,1.865.295c.1,0,.192-.005.289-.011A1.251,1.251,0,0,1,136.719,159.067Z" transform="translate(-125.862 -144.622)" fill="#dbb205"/>
    </g>
    <g id="Group_18" data-name="Group 18" transform="translate(5.36 3.049)">
      <path id="Path_21" data-name="Path 21" d="M129.933,125.02a1.778,1.778,0,0,1,2.144.463.6.6,0,0,0,.827-.042.557.557,0,0,0-.042-.8,2.9,2.9,0,0,0-3.546-.584,2.177,2.177,0,0,0-1.045,2.441.582.582,0,0,0,.555.4h0a.587.587,0,0,0,.175-.027.564.564,0,0,0,.385-.7A1.047,1.047,0,0,1,129.933,125.02Zm-.8,1.21a.309.309,0,0,1-.209.389.32.32,0,0,1-.1.015.316.316,0,0,1-.3-.209,1.92,1.92,0,0,1,.928-2.148,2.3,2.3,0,0,1,1.195-.329,3.006,3.006,0,0,1,2.031.881l0,0a.3.3,0,0,1,.024.438.322.322,0,0,1-.22.1.333.333,0,0,1-.242-.09,2.017,2.017,0,0,0-2.445-.482A1.3,1.3,0,0,0,129.132,126.231Z" transform="translate(-128.2 -123.686)" fill="#dbb205"/>
    </g>
  </g>
  <g id="Group_20" data-name="Group 20" transform="translate(2.693 14.025)">
    <path id="Path_22" data-name="Path 22" d="M141.76,142.853a.452.452,0,0,0-.454.447c-.01.861-.367,1.37-1.034,1.47a2.041,2.041,0,0,1-2.112-1.223c0-.009-.006-.019-.009-.028a.452.452,0,1,0-.851.3,2.922,2.922,0,0,0,2.711,1.87,2.516,2.516,0,0,0,.4-.029,2.163,2.163,0,0,0,1.8-2.354v0A.452.452,0,0,0,141.76,142.853Z" transform="translate(-129.5 -133.746)"/>
    <path id="Path_23" data-name="Path 23" d="M155.729,123.087a1.213,1.213,0,0,0,.547-.828v.007a.452.452,0,0,0-.892-.146.317.317,0,0,1-.155.221c-.172.113-.73.341-2.2-.014s-1.164-2.145-1.151-2.221a.452.452,0,0,0-.89-.158,2.7,2.7,0,0,0,1.829,3.257c.1.025.2.045.3.066a1.009,1.009,0,0,1,.4.906.95.95,0,0,1-.743.675h0a.452.452,0,1,0,.262.865,1.821,1.821,0,0,0,1.371-1.381,1.706,1.706,0,0,0-.1-.921h.06A2.4,2.4,0,0,0,155.729,123.087Z" transform="translate(-139.143 -117.322)"/>
    <path id="Path_24" data-name="Path 24" d="M111.326,118.072a3.852,3.852,0,0,1,1.638-1.52,3.541,3.541,0,0,0,.811,2.058.453.453,0,1,0,.681-.6,2.464,2.464,0,0,1-.247-2.823,4.686,4.686,0,0,1,3.49-1.746,3.274,3.274,0,0,1,2.821,1.07.452.452,0,1,0,.72-.547l-.013-.016a3.561,3.561,0,0,0-.761-.7,5.863,5.863,0,0,1,3.124-.361c.852.12,2.325.519,2.609,1.851a.452.452,0,0,0,.439.358.463.463,0,0,0,.1-.01.453.453,0,0,0,.349-.536v0a2.762,2.762,0,0,0-.313-.8,4.556,4.556,0,0,1,2.765.9,5.3,5.3,0,0,1,.955.9q.179-.47.341-.96a6.239,6.239,0,0,0-.768-.671,5.321,5.321,0,0,0-4.015-1,4.749,4.749,0,0,0-2.333-.922c-1.508-.211-3.377.068-4.157.8a4.82,4.82,0,0,0-1.92-.246,5.568,5.568,0,0,0-4.208,2.183,3.319,3.319,0,0,0-.353.815,4.657,4.657,0,0,0-2.2,1.579Q111.087,117.6,111.326,118.072Z" transform="translate(-110.877 -111.925)"/>
    <path id="Path_25" data-name="Path 25" d="M168.993,130.583a.452.452,0,1,0,.307.851,6.7,6.7,0,0,1,.685-.206q.276-.494.533-1.018A5.651,5.651,0,0,0,168.993,130.583Z" transform="translate(-151.67 -124.825)"/>
    <path id="Path_26" data-name="Path 26" d="M120.118,135.7a.452.452,0,0,0-.9.068,1.079,1.079,0,0,1-.708,1.217,1.9,1.9,0,0,1-1.466-.115c.257.376.528.749.819,1.118l.047,0a2.588,2.588,0,0,0,.914-.157,1.989,1.989,0,0,0,1.3-2.135Z" transform="translate(-115.227 -128.406)"/>
    <path id="Path_27" data-name="Path 27" d="M130.176,123.723a1.854,1.854,0,0,1,2.29.476l.014.014a.452.452,0,1,0,.605-.672,2.712,2.712,0,0,0-3.388-.584,2.123,2.123,0,0,0-.986,2.357.452.452,0,0,0,.429.316.445.445,0,0,0,.139-.022.452.452,0,0,0,.294-.567A1.212,1.212,0,0,1,130.176,123.723Z" transform="translate(-123.414 -119.455)"/>
    <path id="Path_28" data-name="Path 28" d="M166.1,142.1l-.618.6q.1-.032.195-.056C165.82,142.468,165.961,142.286,166.1,142.1Z" transform="translate(-149.404 -133.215)"/>
    <path id="Path_29" data-name="Path 29" d="M131.577,137.053a6.436,6.436,0,0,0,1.379.247,21.887,21.887,0,0,0,4.612-3.51c.024-.075.049-.15.072-.228a2.206,2.206,0,0,1,.089-.3l-2.852,2.773a4.047,4.047,0,0,1-3.155.116,3.656,3.656,0,0,1-2.255-1.8,4.246,4.246,0,0,1-.251-3.212c.429-1.329,2.165-1.513,3.148-1.6.714.139.9.372.947.468a.537.537,0,0,1-.077.468.452.452,0,1,0,.786.448,1.391,1.391,0,0,0,.11-1.3,1.352,1.352,0,0,0-.4-.495,1.6,1.6,0,0,0,.361-.374,2,2,0,0,0,.229-1.581.452.452,0,0,0-.884.191,1.154,1.154,0,0,1-.1.887.807.807,0,0,1-.54.33c-.106.02-.259.033-.444.049-1.093.1-3.369.3-3.99,2.231a5.166,5.166,0,0,0,.311,3.91c.053.1.114.2.174.3-.048.005-.1.009-.148.013A21.521,21.521,0,0,0,131.577,137.053Z" transform="translate(-123.038 -122.43)"/>
    <path id="Path_30" data-name="Path 30" d="M160.769,145.49l1.388-1.35A2.239,2.239,0,0,0,160.769,145.49Z" transform="translate(-146.078 -134.654)"/>
  </g>
  <g id="Group_23" data-name="Group 23" transform="translate(18.123 8.574)">
    <g id="Group_21" data-name="Group 21" transform="translate(0.125 0.125)">
      <rect id="Rectangle_1" data-name="Rectangle 1" width="0.614" height="3.396" rx="0.307" transform="matrix(-0.956, -0.292, 0.292, -0.956, 0.629, 3.47)" fill="#ffce00"/>
      <path id="Path_31" data-name="Path 31" d="M164.153,97.35a.381.381,0,0,1-.113-.017l-.063-.019a.385.385,0,0,1-.255-.48l.833-2.723a.385.385,0,0,1,.481-.256l.062.019a.386.386,0,0,1,.256.481l-.833,2.723a.386.386,0,0,1-.368.272Zm-.11-.247.062.019a.164.164,0,0,0,.2-.108l.833-2.723a.164.164,0,0,0-.109-.2l-.062-.019a.163.163,0,0,0-.125.012.161.161,0,0,0-.08.1l-.833,2.723a.165.165,0,0,0,.109.2Z" transform="translate(-163.706 -93.838)" fill="#ffce00"/>
    </g>
    <g id="Group_22" data-name="Group 22">
      <path id="Path_32" data-name="Path 32" d="M164.1,97.33a.431.431,0,0,1-.128-.019.441.441,0,0,1-.293-.55l.814-2.661a.441.441,0,0,1,.843.257l-.814,2.661A.441.441,0,0,1,164.1,97.33Zm.814-3.275a.174.174,0,0,0-.166.123l-.814,2.66a.174.174,0,0,0,.332.1l.814-2.661a.174.174,0,0,0-.115-.217A.176.176,0,0,0,164.91,94.055Z" transform="translate(-163.545 -93.678)" fill="#ffce00"/>
      <path id="Path_33" data-name="Path 33" d="M163.831,97.175a.54.54,0,0,1-.161-.024.551.551,0,0,1-.365-.688l.814-2.661a.552.552,0,0,1,.688-.365.551.551,0,0,1,.365.687l-.814,2.661A.555.555,0,0,1,163.831,97.175Zm.814-3.541a.332.332,0,0,0-.316.234l-.814,2.66a.33.33,0,0,0,.219.412.34.34,0,0,0,.413-.219l.814-2.661a.33.33,0,0,0-.315-.426Zm-.814,3.275a.287.287,0,0,1-.083-.012.284.284,0,0,1-.189-.355l.814-2.66a.287.287,0,0,1,.353-.189.284.284,0,0,1,.19.355l-.814,2.66A.284.284,0,0,1,163.831,96.909Zm.814-3.008a.063.063,0,0,0-.061.044l-.814,2.661a.063.063,0,0,0,.042.079.065.065,0,0,0,.079-.042l.814-2.661a.066.066,0,0,0,0-.049.064.064,0,0,0-.038-.031Z" transform="translate(-163.28 -93.413)" fill="#ffce00"/>
    </g>
  </g>
  <g id="Group_26" data-name="Group 26" transform="translate(5.173 8.542)">
    <g id="Group_24" data-name="Group 24" transform="translate(0.124 0.124)">
      <rect id="Rectangle_2" data-name="Rectangle 2" width="0.614" height="3.396" rx="0.307" transform="matrix(0.933, -0.359, 0.359, 0.933, 0.03, 0.251)" fill="#ffce00"/>
      <path id="Path_34" data-name="Path 34" d="M121.128,97.175a.389.389,0,0,1-.157-.033.381.381,0,0,1-.2-.213l-1.023-2.658a.385.385,0,0,1,.221-.5l.061-.024a.385.385,0,0,1,.5.221l1.022,2.658a.385.385,0,0,1-.221.5l-.062.024A.378.378,0,0,1,121.128,97.175Zm-.962-3.23a.155.155,0,0,0-.058.011l-.061.023a.164.164,0,0,0-.094.212l1.022,2.658a.165.165,0,0,0,.212.094l.061-.023a.164.164,0,0,0,.094-.212l-1.022-2.658A.164.164,0,0,0,120.165,93.945Z" transform="translate(-119.72 -93.724)" fill="#ffce00"/>
    </g>
    <g id="Group_25" data-name="Group 25" transform="translate(0 0)">
      <path id="Path_35" data-name="Path 35" d="M121.115,97.158a.445.445,0,0,1-.179-.038.438.438,0,0,1-.232-.244l-1-2.6a.44.44,0,0,1,.822-.316l1,2.6a.441.441,0,0,1-.253.569h0A.442.442,0,0,1,121.115,97.158Zm-1-3.211a.174.174,0,0,0-.161.236l1,2.6a.175.175,0,0,0,.224.1.174.174,0,0,0,.1-.225l-1-2.6a.175.175,0,0,0-.163-.111Z" transform="translate(-119.565 -93.569)" fill="#ffce00"/>
      <path id="Path_36" data-name="Path 36" d="M120.85,97a.552.552,0,0,1-.515-.353l-1-2.6a.551.551,0,0,1,1.028-.4l1,2.6a.55.55,0,0,1-.514.748Zm-1-3.477a.33.33,0,0,0-.307.449l1,2.6a.327.327,0,0,0,.174.183.329.329,0,0,0,.442-.419l-1-2.6a.329.329,0,0,0-.174-.183A.335.335,0,0,0,119.85,93.525Zm1,3.211a.286.286,0,0,1-.266-.182l-1-2.6a.284.284,0,0,1,.53-.2l1,2.6a.284.284,0,0,1-.264.386Zm-1-2.944a.071.071,0,0,0-.024,0,.063.063,0,0,0-.034.033.064.064,0,0,0,0,.048l1,2.6a.059.059,0,0,0,.034.035.062.062,0,0,0,.049,0,.063.063,0,0,0,.036-.082l-1-2.6a.064.064,0,0,0-.034-.035Z" transform="translate(-119.3 -93.304)" fill="#ffce00"/>
    </g>
  </g>
  <g id="Group_29" data-name="Group 29" transform="translate(12.033 6.239)">
    <g id="Group_27" data-name="Group 27" transform="translate(0.131 0.131)">
      <rect id="Rectangle_3" data-name="Rectangle 3" width="0.635" height="5.059" rx="0.317" transform="translate(0.385 0.095) rotate(3.295)" fill="#ffce00"/>
      <path id="Path_37" data-name="Path 37" d="M143.507,91.207h-.023l-.068,0a.394.394,0,0,1-.37-.416L143.3,86.3a.393.393,0,0,1,.416-.371l.068,0a.395.395,0,0,1,.37.416l-.258,4.485A.4.4,0,0,1,143.507,91.207Zm-.01-.221a.175.175,0,0,0,.183-.163l.258-4.484a.174.174,0,0,0-.163-.183l-.068,0a.176.176,0,0,0-.183.163l-.258,4.485a.174.174,0,0,0,.163.183Z" transform="translate(-143.046 -85.93)" fill="#ffce00"/>
    </g>
    <g id="Group_28" data-name="Group 28">
      <path id="Path_38" data-name="Path 38" d="M143.425,91.179H143.4a.451.451,0,0,1-.424-.476l.254-4.417a.451.451,0,0,1,.9.052l-.254,4.417A.451.451,0,0,1,143.425,91.179Zm.254-5.052a.185.185,0,0,0-.184.173l-.254,4.417a.184.184,0,1,0,.368.021l.254-4.417a.184.184,0,0,0-.173-.194Z" transform="translate(-142.864 -85.75)" fill="#ffce00"/>
      <path id="Path_39" data-name="Path 39" d="M143.16,91.023h-.033a.563.563,0,0,1-.527-.592l.254-4.417a.557.557,0,0,1,.187-.386.55.55,0,0,1,.405-.141.561.561,0,0,1,.528.592l-.254,4.417A.561.561,0,0,1,143.16,91.023Zm.254-5.318a.342.342,0,0,0-.34.321l-.254,4.417a.342.342,0,0,0,.321.36l.019.111V90.8a.341.341,0,0,0,.34-.321l.254-4.417a.341.341,0,0,0-.32-.359Zm-.259,5.052h-.01a.3.3,0,0,1-.28-.311l.255-4.417a.294.294,0,0,1,.294-.277h.01a.294.294,0,0,1,.284.311l-.254,4.417A.3.3,0,0,1,143.156,90.757Zm.259-4.9v.11a.074.074,0,0,0-.073.069l-.255,4.417a.074.074,0,0,0,.069.078h0a.074.074,0,0,0,.076-.07l.254-4.416a.076.076,0,0,0-.019-.053.073.073,0,0,0-.051-.024Z" transform="translate(-142.599 -85.484)" fill="#ffce00"/>
    </g>
  </g>
  <g id="Group_33" data-name="Group 33">
    <g id="Group_32" data-name="Group 32">
      <g id="Group_30" data-name="Group 30" transform="translate(0.266 0.266)">
        <path id="Path_40" data-name="Path 40" d="M114.577,65.207a.336.336,0,0,0-.083.031L102.817,71.5a.334.334,0,0,0-.178.3c-.037,7.485,1.489,12.258,3.739,15.6s5.207,5.251,7.951,7.027a.333.333,0,0,0,.354,0c2.761-1.748,5.737-3.623,8.02-6.948s3.856-8.081,3.893-15.567a.333.333,0,0,0-.175-.3l-11.614-6.38a.332.332,0,0,0-.229-.032Zm.069.707,11.272,6.191c-.064,7.274-1.59,11.837-3.766,15.006-2.149,3.13-4.937,4.933-7.644,6.648-2.69-1.742-5.46-3.572-7.578-6.723-2.144-3.19-3.625-7.768-3.616-15.043Z" transform="translate(-102.638 -65.2)"/>
      </g>
      <g id="Group_31" data-name="Group 31">
        <path id="Path_41" data-name="Path 41" d="M113.866,94.113a.6.6,0,0,1-.32-.092l-.046-.03c-2.679-1.734-5.715-3.7-7.983-7.073-2.58-3.838-3.817-8.992-3.784-15.755a.594.594,0,0,1,.321-.536l11.675-6.263a.6.6,0,0,1,.151-.056h0a.605.605,0,0,1,.412.058l11.616,6.381a.6.6,0,0,1,.314.543c-.034,6.758-1.323,11.9-3.94,15.711-2.3,3.352-5.358,5.287-8.054,6.994l-.043.027A.608.608,0,0,1,113.866,94.113ZM114,64.829l-.016.006L102.3,71.1a.066.066,0,0,0-.038.061c-.033,6.659,1.175,11.714,3.693,15.461,2.207,3.284,5.065,5.134,7.83,6.923l.044.029a.064.064,0,0,0,.068,0l.041-.026c2.782-1.762,5.659-3.583,7.9-6.846,2.555-3.722,3.813-8.765,3.847-15.418a.069.069,0,0,0-.035-.066l-11.616-6.381A.066.066,0,0,0,114,64.829Zm-.128,28.609-.144-.093c-2.56-1.657-5.461-3.536-7.654-6.8-2.471-3.677-3.669-8.647-3.662-15.192V71.2l11.6-6.222,11.538,6.337v.159c-.057,6.545-1.3,11.5-3.813,15.155-2.226,3.241-5.146,5.09-7.721,6.722ZM102.942,71.514c.012,6.357,1.181,11.178,3.571,14.735a23.6,23.6,0,0,0,7.358,6.556,23.6,23.6,0,0,0,7.423-6.482c2.426-3.533,3.642-8.341,3.717-14.7l-11.005-6.044Z" transform="translate(-101.733 -64.295)"/>
      </g>
    </g>
  </g>
  <g id="Group_34" data-name="Group 34" transform="translate(35.015 5.029)">
    <path id="Path_42" data-name="Path 42" d="M222.609,81.373a1.96,1.96,0,1,1-1.96,1.984A1.959,1.959,0,0,1,222.609,81.373Zm-1.578,17.968V87.207h3.18v13.879Z" transform="translate(-220.649 -81.373)" fill="#ffce00"/>
  </g>
  <g id="Group_35" data-name="Group 35" transform="translate(41.972 10.578)">
    <path id="Path_43" data-name="Path 43" d="M244.276,116.281v-15.8h3.084v1.435a4.113,4.113,0,0,1,3.61-1.7c3.443,0,5.427,2.63,5.427,6.121,0,3.563-2.224,6.193-5.547,6.193a4.133,4.133,0,0,1-3.4-1.435v6.925Zm6.073-13.215a3.335,3.335,0,0,0,0,6.623c1.626,0,2.917-1.22,2.917-3.323C253.266,104.285,251.974,103.066,250.349,103.066Z" transform="translate(-244.276 -100.221)" fill="#ffce00"/>
  </g>
  <g id="Group_36" data-name="Group 36" transform="translate(56.602 10.746)">
    <path id="Path_44" data-name="Path 44" d="M301.136,104.041a4.8,4.8,0,0,0-.956-.1c-1.625,0-3.036.789-3.036,3.323v5.38h-3.18V100.885h3.084v1.745a3.5,3.5,0,0,1,3.347-1.841,7.163,7.163,0,0,1,.741.048Z" transform="translate(-293.964 -100.789)" fill="#2673e5"/>
  </g>
  <g id="Group_37" data-name="Group 37" transform="translate(65.017 10.483)">
    <path id="Path_45" data-name="Path 45" d="M334.878,106.137a6.169,6.169,0,1,1-6.168-6.24A6.039,6.039,0,0,1,334.878,106.137Zm-3.18,0a3.008,3.008,0,1,0-2.988,3.347A3.018,3.018,0,0,0,331.7,106.137Z" transform="translate(-322.541 -99.897)" fill="#2673e5"/>
  </g>
  <g id="Group_38" data-name="Group 38" transform="translate(78.453 7.327)">
    <path id="Path_46" data-name="Path 46" d="M373.456,92.693h2.367v2.821h-2.367v4.925c0,1.028.478,1.363,1.387,1.363a4.6,4.6,0,0,0,.98-.1v2.63a4.712,4.712,0,0,1-1.793.287,3.405,3.405,0,0,1-3.73-3.634V95.514h-2.128V92.693h.6a1.7,1.7,0,0,0,1.817-1.865v-1.65h2.869Z" transform="translate(-368.172 -89.178)" fill="#2673e5"/>
  </g>
  <g id="Group_39" data-name="Group 39" transform="translate(113.69 7.327)">
    <path id="Path_47" data-name="Path 47" d="M493.128,92.693h2.367v2.821h-2.367v4.925c0,1.028.478,1.363,1.387,1.363a4.6,4.6,0,0,0,.98-.1v2.63a4.713,4.713,0,0,1-1.793.287,3.4,3.4,0,0,1-3.729-3.634V95.514h-2.128V92.693h.6a1.7,1.7,0,0,0,1.817-1.865v-1.65h2.869Z" transform="translate(-487.844 -89.178)" fill="#2673e5"/>
  </g>
  <g id="Group_40" data-name="Group 40" transform="translate(87.8 10.483)">
    <path id="Path_48" data-name="Path 48" d="M411.345,108.647a5.3,5.3,0,0,1-5.356,3.73A6.25,6.25,0,0,1,405.7,99.9c3.635,0,5.81,2.319,5.81,6.1,0,.455-.048.933-.048.981h-8.416a2.865,2.865,0,0,0,2.965,2.678,2.6,2.6,0,0,0,2.678-1.793ZM408.38,104.8a2.365,2.365,0,0,0-2.629-2.319,2.545,2.545,0,0,0-2.63,2.319Z" transform="translate(-399.917 -99.897)" fill="#2673e5"/>
  </g>
  <g id="Group_41" data-name="Group 41" transform="translate(101.02 10.483)">
    <path id="Path_49" data-name="Path 49" d="M447.994,106.137a3.029,3.029,0,0,0,3.012,3.323,2.693,2.693,0,0,0,2.7-1.985l2.8.933a5.461,5.461,0,0,1-5.5,3.969,6.086,6.086,0,0,1-6.193-6.24,6.022,6.022,0,0,1,6.1-6.24,5.385,5.385,0,0,1,5.523,3.969l-2.845.956a2.565,2.565,0,0,0-2.607-1.984A2.991,2.991,0,0,0,447.994,106.137Z" transform="translate(-444.814 -99.897)" fill="#2673e5"/>
  </g>
</svg>
